<?xml version="1.0" standalone="no"?>
<!DOCTYPE svg PUBLIC "-//W3C//DTD SVG 1.1//EN" "http://www.w3.org/Graphics/SVG/1.1/DTD/svg11.dtd">
<svg xmlns="http://www.w3.org/2000/svg">
<metadata>Copyright (C) 2026 by original authors @ fontello.com</metadata>
<defs>
<font id="fontello" horiz-adv-x="1000" >
<font-face font-family="fontello" font-weight="400" font-stretch="normal" units-per-em="1000" ascent="850" descent="-150" />
<missing-glyph horiz-adv-x="1000" />
<glyph glyph-name="acceleration" unicode="&#xe800;" d="M333 756c110 0 198-88 198-198 0-98-71-179-165-195l407-271c28-19 51-34 66-48 8-6 16-15 21-26 6-13 7-29-2-43-8-12-20-19-30-23-10-3-22-5-34-6-23-2-56-2-96-2l-468 0c-31 0-56 0-76 2-24 2-46 6-64 19-20 13-30 31-34 53-4 17-4 39-4 62l0 0 0 317c0 21 1 41 4 56 2 10 6 21 13 31 8 10 19 17 31 20 15 4 30 3 44-2-6 18-9 37-9 56 0 110 89 198 198 198z m-215-312c0-1-1-2-1-4-2-8-2-21-2-40l0-317c0-27 0-42 2-53 2-8 4-11 7-13 6-4 15-7 35-9 18-1 41-2 74-2l463 0c40 0 69 0 89 2-12 8-28 19-49 33l-532 355c-30 20-50 33-66 41-12 6-18 7-20 7z m215 250c-74 0-135-61-135-136 0-74 61-135 135-135 75 0 136 61 136 135 0 75-61 136-136 136z m308-233l187-108c-4 12-10 25-15 40-5 16 4 34 20 40 16 5 34-3 40-20 4-13 9-26 13-37l1-3c4-10 9-21 12-31 3-10 6-21 7-32 1-10 0-26-12-39-7-8-16-12-23-14-8-3-16-5-26-7-8-2-20-4-34-6-13-2-28-5-44-8-17-3-33 8-37 25-3 17 8 33 25 37 13 2 24 4 34 6l-179 102c-15 9-20 28-12 43 9 15 28 20 43 12z" horiz-adv-x="1000" />

<glyph glyph-name="access" unicode="&#xe801;" d="M300 798c127 0 230-107 230-240 0-82-40-154-100-197l0-60 0-4c0-23 0-42-6-60-5-17-16-32-30-51l-2-3-14-20 35-50 1-1 0 0c2-3 4-6 6-9 5-9 9-19 10-30 0-4 0-8 0-11l0-2c0-5 0-10-1-15-1-12-6-24-13-34-3-4-7-8-10-11l0-1-85-88c-11-12-30-12-42 0l-53 56-4 3c-20 21-35 37-44 58-8 21-8 44-8 74l0 5 0 254c-60 43-100 115-100 197 0 133 103 240 230 240z m-170-240c0-65 34-122 85-153 9-6 15-16 15-27l0-271c0-37 1-47 4-55 3-8 9-15 34-41l32-34 63 66c2 2 3 4 4 5 1 0 1 0 1 1l0 0c1 1 2 3 2 4 0 1 0 1 0 2 0 1 0 3 0 6 0 2 0 3 0 4 0 1 0 1 0 1l0 0 0 0 0 0c0 2-1 3-1 5l0 0 0 0 0 0c0 0-1 0-1 0 0 1-1 2-3 4l-49 69c-8 11-8 26 0 37l28 39c17 24 21 30 23 37 3 7 3 15 3 44l0 77c0 11 6 21 15 27 51 31 85 88 85 153 0 98-76 177-170 177-94 0-170-79-170-177z m692-323c-10 0-23 0-42 0l-240 0c-17 0-30 14-30 32 0 17 13 31 30 31l241 0c18 0 33 0 45-1 13-1 25-3 36-8 27-11 49-34 60-62 4-12 6-24 7-38 1-12 1-28 1-46l0-2c0-19 0-34-1-47-1-13-3-26-7-38-11-28-33-50-60-62-11-5-23-7-36-8-12-1-27-1-45-1l-241 0c-17 0-30 14-30 32 0 17 13 31 30 31l240 0c19 0 32 0 42 1 9 0 14 2 17 3 12 5 22 15 27 28 2 3 3 8 3 18 1 11 1 24 1 44 0 20 0 33-1 43 0 10-1 15-3 18-5 13-15 23-27 29-3 1-8 2-17 3z m-42 375l-160 0c-17 0-30 14-30 32 0 17 13 31 30 31l161 0c18 0 33 0 45-1 13-1 25-3 36-8 27-11 49-34 60-62 4-12 6-24 7-38 1-12 1-28 1-46l0-2c0-19 0-34-1-47-1-13-3-26-7-38-11-28-33-50-60-62-11-5-23-7-36-8-12-1-27-1-45-1l-161 0c-17 0-30 14-30 32 0 17 13 31 30 31l160 0c19 0 32 0 42 1 9 0 14 2 17 3 12 5 22 15 27 28 2 3 3 8 3 18 1 11 1 24 1 44 0 20 0 33-1 43 0 10-1 15-3 18-5 13-15 23-27 29-3 1-8 2-17 3-10 0-23 0-42 0z m-480-10l0 0c22 0 40-19 40-42 0-23-18-41-40-41l0 0c-22 0-40 18-40 41 0 23 18 42 40 42z" horiz-adv-x="1000" />

<glyph glyph-name="account-setting-03" unicode="&#xe802;" d="M507 798c21-2 38-11 54-23 15-12 31-28 50-47l1-1c19-19 23-23 28-25 1 0 1-1 2-1 5-2 11-2 38-2l6 0c30 0 55 0 75-3 22-3 42-9 59-26 17-17 23-37 26-59 3-20 3-45 3-75l0-6c0-27 0-33 2-38 0-1 1-1 1-2 2-5 6-9 25-28l1-1c19-19 35-35 47-50 12-16 21-33 23-54 0-4 0-9 0-14-2-21-11-38-23-54-12-14-28-31-47-49l-1-2c-19-19-23-23-25-28 0-1-1-1-1-2-2-5-2-11-2-37l0-7c0-30 0-55-3-75-3-22-9-42-26-59-17-16-37-23-59-26-20-3-45-3-75-3l-6 0c-27 0-33 0-38-2-1 0-1-1-2-1-5-2-9-6-28-25l-1-1c-19-19-35-35-50-47-16-12-33-21-54-23-4 0-9 0-14 0-21 2-38 11-54 23-14 12-31 28-49 47l0 0-2 1c-19 19-23 23-28 25-1 0-1 1-2 1-5 2-11 2-37 2l-7 0c-30 0-55 0-75 3-22 3-42 10-59 26-16 17-23 37-26 59-3 20-3 45-3 75l0 7c0 26 0 32-2 37 0 1 0 1-1 2-2 5-6 9-25 28l-1 2c-19 18-35 35-46 49-13 16-22 33-24 54 0 5 0 10 0 14 2 21 11 38 24 54 11 15 27 31 46 50l0 0 1 1c19 19 23 23 25 28 1 1 1 1 1 2 2 5 2 11 2 38l0 6c0 30 0 55 3 75 3 22 10 42 26 59 17 17 37 23 59 26 20 3 45 3 75 3l7 0c26 0 32 0 37 2 1 0 1 1 2 1 5 2 9 6 28 25l2 1c18 19 35 35 49 47 16 12 33 21 54 23 5 0 10 0 14 0z m-10-63c-3 0-9-1-19-10-12-9-25-22-46-43l-2-2c-15-15-28-28-44-35-2-1-4-2-6-3-17-6-35-6-55-6l0 0-4 0-5 0c-32 0-53 0-69-2-15-2-20-5-23-8-3-3-6-8-8-23-2-16-2-37-2-69l0-4 0-4 0 0c0-21 0-39-6-55-1-3-2-5-3-7-7-16-20-29-34-43l-3-3c-21-21-34-34-43-46-9-10-10-16-10-19 0-2 0-4 0-6 0-3 1-9 10-19 9-12 22-25 43-46l3-2c14-15 27-28 34-44 1-2 2-4 3-6 6-17 6-35 6-55l0 0 0-4 0-5c0-32 0-53 2-69 2-15 5-20 8-23 3-3 8-6 23-8 16-2 37-2 69-2l5 0 4 0 0 0c20 0 38 0 55-6 2-1 4-2 6-3 16-7 29-20 44-34l2-3c21-21 34-34 46-43 10-9 16-10 19-10 2-1 4-1 6 0 3 0 9 1 19 10 12 9 25 22 46 43l3 3c14 14 27 27 43 34q3 2 7 3c16 6 34 6 54 6l1 0 4 0 4 0c32 0 53 0 69 2 15 2 20 5 23 8 3 3 6 8 8 23 2 16 2 37 2 69l0 5 0 4 0 0c0 20 0 38 6 55q2 3 3 6c7 16 20 29 35 44l2 2c21 21 34 34 43 46 9 10 10 16 10 19 1 2 1 4 0 6 0 3-1 9-10 19-9 12-22 25-43 46l-2 3c-15 14-28 27-35 43-1 2-2 4-3 7-6 16-6 34-6 54l0 1 0 4 0 4c0 32 0 53-2 69-2 15-5 20-8 23-3 3-8 6-23 8-16 2-37 2-69 2l-4 0-4 0 0 0c-21 0-39 0-55 6-3 1-5 2-7 3-16 7-29 20-43 35l-3 2c-21 21-34 34-46 43-10 9-16 10-19 10-2 1-4 1-6 0z m3-187c63 0 115-51 115-115 0-63-52-114-115-114-63 0-115 51-115 114 0 64 52 115 115 115z m-119-401c-8-15-27-20-42-11-15 8-20 27-12 42 35 60 99 100 173 100 74 0 138-40 173-100 9-15 3-34-11-42-15-9-35-4-43 11-24 41-68 68-119 68-51 0-95-27-119-68z m67 286c0-28 23-52 52-52 29 0 52 24 52 52 0 29-23 52-52 52-29 0-52-23-52-52z" horiz-adv-x="1000" />

<glyph glyph-name="activity-04" unicode="&#xe803;" d="M480 735l0 0c48 0 89 0 125-1 16 0 29-15 29-32-1-17-15-31-31-30-35 1-75 1-123 1-86 0-147 0-193-7-46-6-73-18-93-39-20-20-31-49-38-96-6-49-6-113-6-202 0-89 0-153 6-201 7-48 18-76 38-97 20-20 47-33 93-39 46-7 107-7 193-7 86 0 147 0 194 7 45 6 72 19 92 39 20 21 32 49 38 97 6 48 6 112 6 201 0 50 0 92-1 128-1 17 12 32 29 32 16 1 30-13 31-30 1-37 1-80 1-129l0-3c0-87 0-155-7-208-7-54-22-98-54-132-33-34-75-50-127-57-51-7-117-7-200-7l-4 0c-83 0-148 0-199 7-53 7-95 23-127 57-33 34-48 78-55 132-7 53-7 121-7 208l0 5c0 86 0 154 7 207 7 55 22 98 55 132 32 35 74 50 127 57 51 7 116 7 199 7l2 0z m-32-228l96-266 49 102c5 11 16 17 27 17l100 0c17 0 30-14 30-31 0-17-13-31-30-31l-81 0-72-149c-5-12-17-18-29-18-11 1-22 9-26 21l-96 266-49-103c-5-10-16-17-27-17l-100 0c-17 0-30 14-30 31 0 17 13 31 30 31l81 0 72 150c6 11 17 18 29 17 12-1 22-8 26-20z m242 156c0 63 49 114 110 114 61 0 110-51 110-114 0-64-49-115-110-115-61 0-110 51-110 115z m110 52c-28 0-50-24-50-52 0-29 22-53 50-53 28 0 50 24 50 53 0 28-22 52-50 52z" horiz-adv-x="1000" />

<glyph glyph-name="door-lock" unicode="&#xe804;" d="M125-35l10 0 0 635c0 68 8 124 47 159 20 17 45 26 73 32 28 5 62 7 102 7l286 0c40 0 74-2 102-7 28-6 53-15 73-32 39-35 47-91 47-159l0-635 10 0c17 0 31-14 31-32 0-17-14-31-31-31l-750 0c-17 0-31 14-31 31 0 18 14 32 31 32z m98 747c-16-15-25-42-25-112l0-635 604 0 0 635c0 70-9 97-25 112-9 7-22 13-44 17-22 5-51 6-90 6l-286 0c-39 0-68-1-90-6-22-4-35-10-44-17z m277-164c60 0 111-47 111-108l0-66c28-28 45-67 45-111 0-85-71-153-156-153-85 0-156 68-156 153 0 44 17 83 45 111l0 66c0 61 51 108 111 108z m-60-212c0 0 0 0 0 0-21-17-34-43-34-73 0-49 42-90 94-90 52 0 94 41 94 90 0 30-13 56-33 73-1 0-1 0-1 0 0 0 0 0 0 0-16 14-37 22-60 22-23 0-43-8-60-22z m60 84c17 0 33-3 49-8l0 28c0 24-21 45-49 45-28 0-49-21-49-45l0-28c16 5 32 8 49 8z" horiz-adv-x="1000" />

<glyph glyph-name="door" unicode="&#xe805;" d="M182 658c5 38 16 69 41 94 25 25 57 36 94 41 36 5 82 5 139 5l88 0c57 0 103 0 139-5 38-5 69-16 94-41 25-25 36-56 41-94 5-36 5-82 5-139l0-554 52 0c17 0 31-14 31-32 0-17-14-31-31-31l-750 0c-17 0-31 14-31 31 0 18 14 32 31 32l52 0 0 554c0 57 0 103 5 139z m58-693l520 0 0 552c0 60 0 101-4 133-4 30-11 46-23 58-12 12-28 19-58 23-32 4-73 4-133 4l-84 0c-59 0-101 0-133-4-30-4-46-11-58-23-11-12-19-28-23-58-4-32-4-73-4-133z m62 593c0 18 1 35 4 49 3 15 9 29 21 41 12 12 26 18 41 21 14 3 31 4 49 4l166 0c18 0 35-1 49-4 15-3 29-9 41-21 12-12 18-26 21-41 3-14 4-31 4-49l0-166c0-18-1-35-4-49-3-15-9-29-21-41-12-12-26-18-41-21-14-3-31-4-49-4l-166 0c-18 0-35 1-49 4-15 3-29 9-41 21-12 12-18 26-21 41-3 14-4 31-4 49z m333-166l0 52-104 0 0-104 52 0c17 0 28 1 36 2 7 2 9 4 10 4 0 1 2 3 4 10 2 8 2 19 2 36z m-52 218l-52 0 0-104 104 0 0 52c0 17 0 28-2 36-2 7-4 9-4 10-1 0-3 2-10 4-8 2-19 2-36 2z m-166-270l52 0 0 104-104 0 0-52c0-17 1-28 2-36 2-7 4-9 4-10 1 0 3-2 10-4 8-1 19-2 36-2z m-50 254c-1-8-2-19-2-36l0-52 104 0 0 104-52 0c-17 0-28 0-36-2-7-2-9-4-10-4 0-1-2-3-4-10z m-33-494l-1 0c-23 0-41 19-41 42 0 23 18 41 41 41l1 0c23 0 41-18 41-41 0-23-18-42-41-42z" horiz-adv-x="1000" />

<glyph glyph-name="cupcake-02" unicode="&#xe806;" d="M500 798c94 0 163-84 156-171 57-16 93-79 80-137 32-15 53-39 66-67 16-34 20-72 21-107 2-2 3-3 5-4 23-20 37-49 37-85 0-34-10-65-22-92-7-18-17-36-26-53l0 0c-4-8-8-16-12-23l0-2 0 0c-16-32-30-59-43-80-13-21-28-39-49-51-20-13-42-19-68-21-24-3-53-3-89-3l-111 0c-37 0-66 0-90 3-26 2-48 8-68 21-21 12-36 30-49 51-13 21-26 48-43 80l0 2c-4 7-8 15-12 23l0 0c-9 17-19 35-26 53-12 27-22 58-22 92 0 36 15 65 37 85 2 1 4 2 5 4 3 77 51 145 121 174 3 38 15 68 32 92 19 28 44 47 65 63l1 0c22 17 39 30 52 47 12 17 21 39 21 75 0 17 14 31 31 31z m-213-534c-9 8-23 13-37 13-14 0-28-5-37-13-8-7-15-19-15-37 0-22 6-44 16-68 7-15 15-30 23-45 4-9 9-18 14-28 17-34 29-58 40-75 10-17 19-26 29-32 9-6 21-10 41-12 21-2 47-2 85-2l108 0c38 0 64 0 85 2 20 2 32 6 41 12 10 6 19 15 29 32 12 17 23 41 41 75 4 10 9 19 13 28 9 15 16 30 23 45 10 24 16 46 16 68 0 18-7 30-15 37-9 8-23 13-37 13-14 0-28-5-37-13-8-7-15-19-15-37 0-17-14-31-31-31-18 0-32 14-32 31 0 18-6 30-15 37-9 8-22 13-37 13-14 0-27-5-36-13-9-7-16-19-16-37 0-17-14-31-31-31-17 0-31 14-31 31 0 18-7 30-15 37-10 8-23 13-37 13-15 0-28-5-37-13-9-7-15-19-15-37 0-17-14-31-32-31-17 0-31 14-31 31 0 18-7 30-15 37z m472 75c-2 22-6 41-13 57-8 17-20 31-40 39-13-14-30-25-44-34-15-8-35-3-43 12-9 15-4 34 11 42 18 10 31 22 39 34 19 29 0 70-32 78-12-21-30-37-49-50-26-17-57-30-87-39-30-10-62-17-91-23-5-2-10-3-15-4l0 0 0 0c-23-5-42-9-58-13-47-14-83-52-94-99 3 1 5 1 7 1 27 0 56-9 78-28 2-2 4-4 5-5 2 1 4 3 6 5 22 19 50 28 78 28 27 0 55-9 77-28 2-2 4-4 6-5 2 1 4 3 6 5 22 19 50 28 77 28 28 0 56-9 78-28 2-2 4-4 6-5 2 1 3 3 5 5 22 19 51 28 78 28 3 0 6 0 9-1z m-376 174c4 1 9 2 14 3 28 6 58 13 85 21 28 9 52 19 71 32 18 12 30 26 35 41 18 50-12 105-59 121-5-30-16-55-30-75-19-26-43-44-63-59l-3-2c-22-16-39-30-52-48-7-10-13-23-17-38 6 1 12 2 19 4z" horiz-adv-x="1000" />

<glyph glyph-name="congruent-to-circle" unicode="&#xe807;" d="M500 798c247 0 448-201 448-448 0-247-201-448-448-448-247 0-448 201-448 448 0 247 201 448 448 448z m-385-448c0-213 172-385 385-385 213 0 385 172 385 385 0 213-172 385-385 385-213 0-385-172-385-385z m226 90c-8-15-26-22-42-14-16 7-22 26-15 42 24 48 64 75 110 79 44 4 89-13 125-47 1-1 2-2 3-2 26-26 55-35 78-33 23 2 45 15 59 45 8 15 27 22 42 14 16-7 22-26 15-42-24-48-64-75-110-79-44-4-89 13-125 47-1 1-2 2-3 2-26 26-55 35-78 33-23-2-45-15-59-45z m-28-225l375 0c17 0 31-14 31-32 0-17-14-31-31-31l-375 0c-18 0-32 14-32 31 0 18 14 32 32 32z m0 145l375 0c17 0 31-14 31-31 0-17-14-31-31-31l-375 0c-18 0-32 14-32 31 0 17 14 31 32 31z" horiz-adv-x="1000" />

<glyph glyph-name="city-03" unicode="&#xe808;" d="M542-98l-459 0c-17 0-31 14-31 31 0 18 14 32 31 32l32 0 0 194c-16 6-29 17-38 30-16 21-25 49-25 78 0 29 9 56 25 77 15 21 40 37 69 37 29 0 53-16 69-37 16-21 25-48 25-77 0-29-9-57-25-78-10-13-23-24-38-30l0-194 125 0 0 677c0 26 1 50 6 70 4 20 12 38 27 53 15 15 33 23 54 27 19 5 43 6 69 6l167 0c27 0 50-1 70-6 20-4 39-12 53-27 15-15 23-33 28-53 4-20 5-44 5-70l0-275c3-1 5-2 7-4 18-10 37-24 61-42l1-1 22-16c15-11 28-20 38-29 10-10 19-20 26-33 12-23 12-50 12-82l0-6 0-64c0-35 0-65-3-89-4-26-12-49-31-67-19-18-41-25-66-29-5-2-9-3-15-3l-291 0z m-32 63l0 189 0 6c0 32 0 59 12 82 7 13 16 23 27 33 10 9 22 18 37 29l1 1 21 15 2 1c23 18 43 32 60 42 16 9 31 16 49 18l0 261c0 25-2 43-4 56-3 13-7 19-11 23-3 4-10 7-22 10-14 3-32 4-57 4l-167 0c-25 0-43-1-56-4-13-3-19-6-23-10-3-4-7-10-10-23-3-13-4-31-4-56l0-677z m191 344c-14-8-30-20-55-39l-21-15c-17-12-27-20-35-27-7-7-10-11-12-14-4-9-5-19-5-60l0-189 125 0 0 52c0 17 14 31 31 31 17 0 31-14 31-31l0-52c35 0 59 0 78 2 19 3 27 7 33 12 5 5 9 13 12 31 2 19 2 44 2 83l0 61c0 41 0 51-5 60-1 3-4 7-12 14-7 7-18 15-34 27l-21 15c-25 19-42 31-56 39-13 8-21 10-28 10-7 0-14-2-28-10z m-232 166c0 17 14 31 31 31l83 0c18 0 32-14 32-31 0-17-14-31-32-31l-83 0c-17 0-31 14-31 31z m0 125c0 17 14 31 31 31l83 0c18 0 32-14 32-31 0-17-14-31-32-31l-83 0c-17 0-31 14-31 31z m-354-333c0-17 5-31 12-40 7-10 14-12 19-12 5 0 12 2 19 12 7 9 12 23 12 40 0 17-5 31-12 40-7 9-14 12-19 12-5 0-12-3-19-12-7-9-12-23-12-40z" horiz-adv-x="1000" />

<glyph glyph-name="cellular-network-offline" unicode="&#xe809;" d="M105 789l834-834c12-12 12-32 0-44-12-12-32-12-44 0l-364 364 0-258c0-18-14-32-31-32-17 0-31 14-31 32l0 320-182 182c-4-14-6-29-6-44 0-38 14-75 37-106 11-14 8-33-6-44-13-10-33-8-43 6-32 41-50 91-50 144 0 33 7 64 19 93l-75 75c-31-50-48-107-48-168 0-70 23-135 64-190 10-13 7-33-7-43-14-11-33-8-44 6-48 65-76 143-76 227 0 78 24 151 66 213l-57 57c-12 12-12 32 0 44 13 12 32 12 44 0z m767-87c48-65 76-143 76-227 0-84-28-162-76-227-11-14-30-17-44-6-14 10-17 30-7 43 41 55 64 120 64 190 0 70-23 135-64 190-10 14-7 33 7 43 14 11 33 8 44-6z m-184-77c14 10 33 8 44-6 31-41 49-91 49-144 0-53-18-103-49-144-11-14-30-16-44-6-14 11-17 30-6 44 24 31 37 68 37 106 0 39-13 75-37 106-11 14-8 34 6 44z m-188-98c-4 0-9 0-13-1-17-5-34 5-38 22-4 17 6 34 22 38 10 2 19 4 29 4 63 0 115-52 115-115 0-10-2-19-4-29-4-16-21-26-38-22-17 4-27 21-22 38 1 4 1 9 1 13 0 29-23 52-52 52z" horiz-adv-x="1000" />

<glyph glyph-name="browser" unicode="&#xe80a;" d="M498 777l4 0c92 0 163 0 219-7 58-8 103-24 139-60 36-36 52-81 60-139 7-56 7-127 7-219l0-4c0-92 0-163-7-219-8-58-24-103-60-139-36-36-81-52-139-60-56-7-127-7-219-7l-4 0c-92 0-163 0-219 7-58 8-103 24-139 60-36 36-52 81-59 139-8 56-8 127-8 219l0 4c0 92 0 163 8 219 7 58 23 103 59 139 36 36 81 52 139 60 56 7 127 7 219 7l0 0z m-362-333c-1-28-1-59-1-94 0-94 1-162 7-213 7-50 20-80 42-103 23-22 53-35 103-42 51-7 119-7 213-7 94 0 162 0 213 7 50 7 81 20 103 42 22 23 35 53 42 103 7 51 7 119 7 213 0 35 0 66-1 94z m48 222c-22-22-35-53-42-103-2-17-3-36-4-57l725 0c-1 21-3 40-5 57-7 50-20 81-42 103-22 22-53 35-103 42-51 7-119 7-213 7-94 0-162 0-213-7-50-7-80-20-103-42z m274-24l1 0c23 0 41-19 41-42 0-23-18-42-41-42l-1 0c-23 0-41 19-41 42 0 23 18 42 41 42z m-208-42c0 23 19 42 42 42l0 0c23 0 42-19 42-42 0-23-19-42-42-42l0 0c-23 0-42 19-42 42z" horiz-adv-x="1000" />

<glyph glyph-name="blockchain-01" unicode="&#xe80b;" d="M135 538c0 31 22 51 43 66 21 14 52 29 88 47l2 1 174 85 4 2c18 9 35 17 54 17 19 0 36-8 54-17l4-2 176-86c37-18 67-33 88-47 21-15 43-35 43-66l0-375c0-32-22-52-43-66-21-15-51-30-88-48l-176-86-4-2c-18-9-35-17-54-17-19 0-36 8-54 17l-4 2-176 86 0 0c-36 18-67 33-88 48-21 14-43 34-43 66z m335 143l-174-85c-40-19-66-32-83-44-8-6-12-10-14-12-1-1-1-2-1-2 0 0 0 0 0 0 0-1 0-1 0-1 0 0 0-1 1-2 2-2 6-6 14-12 17-11 43-24 83-44l174-85c24-12 27-13 30-13 3 0 6 1 30 13l174 85c40 20 66 33 83 44 8 6 12 10 14 12 1 1 1 2 1 2 0 0 0 0 0 1 0 0 0 0 0 0 0 0 0 1-1 2-2 2-6 6-14 12-17 12-43 25-83 44l-174 85c-24 12-27 13-30 13-3 0-6-1-30-13z m332-222c-19-11-42-22-68-35l-176-86-4-2c-8-4-15-7-23-10l0-307 173 85c40 20 66 33 83 44 8 6 12 10 14 12 1 1 1 2 1 2 0 0 0 0 0 1z m-333-133c-8 3-15 6-23 10l0 0-4 2-176 86c-26 13-49 24-68 35l0-296c0-1 0-1 0-1 0 0 0-1 1-2 2-2 6-6 14-12 17-11 43-24 83-44l173-85z" horiz-adv-x="1000" />

<glyph glyph-name="authorized" unicode="&#xe80c;" d="M150 142c0 108 83 198 187 198 68 0 127-39 159-96l357 0c9 0 19 0 27-1 10-1 21-5 31-15 6-6 9-13 11-18 2-6 4-12 5-18 2-12 3-25 3-38 0-12-1-26-3-38-1-6-3-12-5-18-2-5-5-13-11-19-10-10-21-14-31-15-8-1-18-1-27-1l-22 0-10-57 0 0c-2-8-3-17-6-24-2-8-7-18-16-26-9-8-19-10-27-11-7-1-16-1-23-1l-33 0c-10 0-19 0-28 1-9 1-21 5-31 15-9 10-12 23-14 32-1 9-1 19-1 29l0 42-134 0c-29-70-94-119-171-119-104 0-187 89-187 198z m188 614l204 0c55 0 99 0 134-5 36-5 66-15 90-40 24-26 35-57 39-95 5-36 5-82 5-139l0-148c0-17-13-31-30-31-17 0-30 14-30 31l0 146c0 60 0 102-4 133-4 31-11 47-22 58-11 12-27 19-56 24-31 4-71 4-128 4l-200 0c-57 0-97 0-128-4-29-5-45-12-56-24-11-11-18-27-22-58-4-31-4-73-4-133l0-208c0-18-13-32-30-32-17 0-30 14-30 32l0 210c0 57 0 103 5 139 5 38 15 69 39 95 24 25 54 35 90 40 35 5 79 5 134 5l0 0z m-1-479c-70 0-127-60-127-135 0-76 57-136 127-136 57 0 105 41 121 97 4 13 16 22 29 22l167 0c4 0 10 0 15 0 5-1 14-3 22-12 8-8 10-18 11-23 0-5 0-11 0-15l0-52c0-6 0-11 0-14 0-1 0-2 0-3l2 0c4 0 8 0 13 0l31 0c4 0 7 0 10 0l1 0 1 2c0 3 1 7 2 11l12 66c1 3 2 8 3 12 2 5 5 13 12 19 7 6 15 8 20 9 4 0 9 0 12 0l30 0c6 0 10 0 14 0 1 0 2 1 3 1 0 0 0 1 0 2 1 7 2 16 2 26 0 10-1 19-2 26 0 1 0 1-1 2 0 0-1 0-2 0-4 0-8 0-14 0l-373 0c-11 0-22 7-27 18-20 46-64 77-114 77z m-37-135c0 23 18 41 40 41l0 0c22 0 40-18 40-41 0-23-18-42-40-42l0 0c-22 0-40 19-40 42z" horiz-adv-x="1000" />

<glyph glyph-name="align-right" unicode="&#xe80d;" d="M270 298l294 0c18 0 34 0 47-1 14-1 27-4 40-12 27-15 39-40 44-63 3-17 3-37 3-52l0 0c0-3 0-5 0-7 0-3 0-5 0-8l0 0c0-15 0-34-3-52-5-23-17-48-44-63-13-8-26-10-40-12-13-1-29-1-47-1l-294 0c-19 0-35 0-48 1-13 2-27 4-40 12-27 15-39 40-43 63-4 18-4 37-4 52 0 3 0 5 0 8 0 2 0 4 0 7 0 15 0 35 4 52 4 23 16 48 43 63 13 8 27 11 40 12 13 1 29 1 48 1z m250 375l44 0c18 0 34 0 47-1 14-1 27-4 40-12 27-15 39-40 44-63 3-17 3-37 3-52 0-3 0-5 0-7 0-3 0-5 0-8 0-15 0-34-3-52-5-23-17-48-44-63-13-8-26-10-40-12-13-1-29-1-47-1l-44 0c-19 0-35 0-48 1-13 2-27 4-40 12-27 15-39 40-43 63-4 18-4 37-4 52 0 3 0 5 0 8 0 2 0 4 0 7 0 15 0 35 4 52 4 23 16 48 43 63 13 8 27 11 40 12 13 1 29 1 48 1z m-292-438c-9-1-13-3-14-4-8-4-12-10-14-21-2-11-2-22-2-37l0 0c0-4 0-7 0-10 0-4 0-7 0-11l0 0c0-14 0-26 2-37 2-11 6-17 14-21 1-1 5-3 14-3 10-1 23-1 43-1l292 0c20 0 33 0 42 1 10 0 13 2 15 3 7 4 11 10 13 21 3 11 3 23 2 37l0 0c0 4 0 7 0 11 0 3 0 6 0 10l0 0c1 15 1 26-2 37-2 11-6 17-13 21-2 1-5 3-15 4-9 0-22 0-42 0l-292 0c-20 0-33 0-43 0z m637 532l0-834c0-17-14-31-32-31-17 0-31 14-31 31l0 834c0 17 14 31 31 31 18 0 32-14 32-31z m-387-157c-9-1-13-3-14-4-8-4-12-10-14-21-2-11-2-22-2-37l0 0 0 0c0-4 0-7 0-10 0-4 0-7 0-11l0 0 0 0c0-14 0-26 2-37 2-11 6-17 14-21 1-1 5-3 14-3 10-1 23-1 43-1l42 0c20 0 33 0 42 1 10 0 13 2 15 3 7 4 11 10 13 21 3 11 3 23 2 37l0 0c0 4 0 7 0 11 0 3 0 6 0 10l0 0c1 15 1 26-2 37-2 11-6 17-13 21-2 1-5 3-15 4-9 0-22 0-42 0l-42 0c-20 0-33 0-43 0z" horiz-adv-x="1000" />

<glyph glyph-name="ai-magic" unicode="&#xe80e;" d="M446 569l22-58c29-79 41-109 62-131 22-21 52-33 131-62l58-22c13-5 21-16 21-29 0-13-8-25-21-30l-58-21c-79-29-109-41-131-63-21-22-33-52-62-131l-22-58c-5-12-16-20-29-20-13 0-25 8-30 20l-21 58c-29 79-41 109-63 131-22 22-52 34-131 63l-58 21c-12 5-20 17-20 30 0 13 8 24 20 29l58 22c79 29 109 41 131 62 22 22 34 52 63 131l21 58c5 13 17 21 30 21 13 0 24-8 29-21z m-99-233c-30-30-70-46-132-69 62-23 102-39 132-70 31-30 47-70 70-132 23 62 39 102 69 132 31 31 71 47 132 70-61 23-101 39-132 69-30 31-46 71-69 132-23-61-39-101-70-132z m432 400l10-25c13-35 16-44 22-50 6-6 15-9 50-22l25-10c12-4 20-16 20-29 0-13-8-25-20-29l-25-9c-35-14-44-17-50-23-6-6-9-15-22-50l-10-25c-4-12-16-20-29-20-13 0-25 8-29 20l-9 25c-14 35-17 44-23 50-6 6-15 9-50 23l-25 9c-12 4-20 16-20 29 0 13 8 25 20 29l25 10c35 13 44 16 50 22 6 6 9 15 23 50l9 25c4 12 16 20 29 20 13 0 25-8 29-20z m-46-119c-7-7-15-12-24-17 9-5 17-10 24-17 7-7 12-15 17-24 5 9 10 17 17 24 7 7 15 12 24 17-9 5-17 10-24 17-7 7-12 15-17 24-5-9-10-17-17-24z" horiz-adv-x="1000" />

<glyph glyph-name="ai-mail-01" unicode="&#xe80f;" d="M620 692c-80 2-160 2-240 0-67-1-113-3-149-9-34-6-56-16-74-34-17-18-27-39-33-72-6-35-7-80-9-145-1-41-1-81 0-122 2-65 3-110 9-145 6-33 16-55 33-72 18-18 40-28 74-34 36-7 82-8 149-10 54-1 108-1 161-1 18 0 32-14 32-31 0-17-14-31-31-31-55-1-109 0-164 1l-2 0c-64 2-115 3-156 10-43 8-77 22-107 51-29 30-43 64-51 106-7 41-8 91-9 152l0 3c-1 41-1 83 0 124l0 2c1 62 2 112 9 152 8 43 22 77 51 106 30 30 64 44 107 52 41 7 92 8 156 10l2 0c82 2 162 2 244 0l2 0c64-2 115-3 156-10 43-8 78-22 107-52 29-29 44-63 51-106 7-40 8-90 9-152l0-2c1-41 1-83 0-124 0-18-14-31-32-31-17 1-31 15-30 32 1 41 1 81 0 122-2 65-3 110-9 145-5 33-15 54-33 72-18 18-39 28-74 34-36 6-82 8-149 9z m180-414l11-29c15-41 20-52 28-60 8-8 19-13 60-28l29-11c12-4 20-16 20-29 0-13-8-25-20-29l-29-11c-41-15-52-20-60-28-8-8-13-19-28-60l-11-29c-4-12-16-20-29-20-13 0-25 8-29 20l-11 29c-15 41-20 52-28 60-8 8-19 13-60 28l-29 11c-12 4-20 16-20 29 0 13 8 25 20 29l29 11c41 15 52 20 60 28 8 8 13 19 28 60l11 29c4 12 16 20 29 20 13 0 25-8 29-20z m-535 255c9 14 28 19 43 11l122-73c35-21 54-27 70-27 16 0 35 6 70 27l122 73c15 8 35 3 43-11 9-15 4-34-11-43l-122-73c-37-21-68-36-102-36-34 0-65 15-102 36l-122 73c-15 9-20 28-11 43z m482-388c-10-10-21-18-35-24 14-7 25-14 35-24 10-10 17-21 24-35 6 14 14 25 24 35 10 10 21 17 35 24-14 6-25 14-35 24-10 10-18 21-24 35-7-14-14-25-24-35z" horiz-adv-x="1000" />

<glyph glyph-name="align-selection" unicode="&#xe810;" d="M277-15c-14-48-58-83-110-83-64 0-115 51-115 115 0 52 35 96 83 110l0 446c-48 14-83 58-83 110 0 64 51 115 115 115 52 0 96-35 110-83l446 0c14 48 58 83 110 83 64 0 115-51 115-115 0-52-35-96-83-110l0-446c48-14 83-58 83-110 0-64-51-115-115-115-52 0-96 35-110 83z m-79 142c38-11 68-41 79-79l446 0c11 38 41 68 79 79l0 446c-38 11-68 41-79 79l-446 0c-11-38-41-68-79-79z m635-162c29 0 52 23 52 52 0 28-23 52-52 52-28 0-52-24-52-52 0-29 24-52 52-52z m0 770c-28 0-52-23-52-52 0-28 24-52 52-52l0 0c29 0 52 24 52 52 0 29-23 52-52 52z m-666-666c-29 0-52-24-52-52 0-29 23-52 52-52 28 0 52 23 52 52l0 0c0 28-24 52-52 52z m-52 614c0-28 23-52 52-52 28 0 52 24 52 52 0 29-24 52-52 52-29 0-52-23-52-52z" horiz-adv-x="1000" />

<glyph glyph-name="arrow-right-double" unicode="&#xe811;" d="M249 546c-12 9-32 24-38 29-14 10-17 30-7 44 10 13 30 16 44 6l0 0 0 0c7-5 28-21 40-30 23-19 55-44 87-72 31-27 64-57 89-85 12-14 23-29 31-42 8-13 15-29 15-46 0-17-7-33-15-46-8-13-19-27-31-41-25-29-58-59-89-86-32-28-64-53-87-72-12-9-33-25-40-30l0 0 0 0c-14-10-34-7-44 7-10 13-7 33 7 43 6 5 26 20 38 30 23 18 54 42 85 69 31 27 61 55 83 80 11 12 19 23 25 33 5 8 6 13 6 13 0 0-1 5-6 14-6 9-14 20-25 32-22 25-52 53-83 80-31 27-62 52-85 70z m292 0c-12 9-32 24-39 29-14 10-16 30-6 44 10 13 30 16 43 6l1 0 0 0c7-5 27-21 39-30 24-19 56-44 87-72 32-27 64-57 89-85 13-14 24-29 32-42 8-13 15-29 15-46 0-17-7-33-15-46-8-13-19-27-32-41-25-29-57-59-89-86-31-28-63-53-87-72-12-9-32-25-39-30l0 0-1 0c-13-10-33-7-43 7-10 13-8 33 6 43 7 5 27 20 39 30 23 18 54 42 84 69 31 27 61 55 83 80 11 12 20 23 25 33 6 8 7 13 7 13 0 0-1 5-7 14-5 9-14 20-25 32-22 25-52 53-83 80-30 27-61 52-84 70z" horiz-adv-x="1000" />

<glyph glyph-name="auto-conversations" unicode="&#xe812;" d="M714 600c0 17 14 31 30 31l113 0c39 0 70-32 71-72l2-128c0-17-13-31-29-32-17 0-31 14-31 31l-2 90-292-340c-19-22-50-25-73-8l-166 128-216-222c-12-12-31-12-42 0-12 12-12 32 0 44l220 226c19 19 49 22 70 5l165-127 148 171 147 172-85 0c-16 0-30 14-30 31z m-261-116l-235 0c-17 0-30 14-30 31 0 17 13 31 30 31l235 0c17 0 30-14 30-31 0-17-13-31-30-31z" horiz-adv-x="1000" />

<glyph glyph-name="blockchain-04" unicode="&#xe813;" d="M248 756l4 0c28 0 52 0 71-2 20-3 40-9 56-25 16-16 22-36 25-56 1-12 2-26 2-42l94 0c17 0 31-14 31-31 0-17-14-31-31-31l-94 0c0-16-1-30-2-42-3-20-9-40-25-56-16-16-36-22-56-25-19-2-43-2-71-2l-4 0c-28 0-52 0-71 2-20 3-40 9-56 25-16 16-22 36-25 56-2 19-2 43-2 71l0 4c0 28 0 52 2 71 3 20 9 40 25 56 16 16 36 22 56 25 19 2 43 2 71 2l0 0z m-29-500l0 94c0 17 14 31 31 31 17 0 31-14 31-31l0-94c16 0 30-1 42-2 20-3 40-9 56-25 16-16 22-36 25-56 2-19 2-43 2-71l0-4c0-28 0-52-2-71-3-20-9-40-25-56-16-16-36-22-56-25-19-2-43-2-71-2l-4 0c-28 0-52 0-71 2-20 3-40 9-56 25-16 16-22 36-25 56-2 19-2 43-2 71l0 4c0 28 0 52 2 71 3 20 9 40 25 56 16 16 36 22 56 25 12 1 26 2 42 2z m529 500l4 0c28 0 52 0 71-2 20-3 40-9 56-25 16-16 22-36 25-56 2-19 2-43 2-71l0-4c0-28 0-52-2-71-3-20-9-40-25-56-16-16-36-22-56-25-12-1-26-2-42-2l0-94c0-17-14-31-31-31-17 0-31 14-31 31l0 94c-16 0-30 1-42 2-20 3-40 9-56 25-16 16-22 36-25 56-2 19-2 43-2 71l0 4c0 28 0 52 2 71 3 20 9 40 25 56 16 16 36 22 56 25 19 2 43 2 71 2z m2-500l2 0c28 0 52 0 71-2 20-3 40-9 56-25 16-16 22-36 25-56 2-19 2-43 2-71l0-4c0-28 0-52-2-71-3-20-9-40-25-56-16-16-36-22-56-25-19-2-43-2-71-2l-4 0c-28 0-52 0-71 2-20 3-40 9-56 25-16 16-22 36-25 56-1 12-2 26-2 42l-94 0c-17 0-31 14-31 31 0 17 14 31 31 31l94 0c0 16 1 30 2 42 3 20 9 40 25 56 16 16 36 22 56 25 19 2 43 2 71 2l2 0z m-64-64c-14-2-18-5-21-7-2-3-5-7-7-21-2-14-2-34-2-64 0-30 0-50 2-64 2-14 5-18 7-21 3-2 7-5 21-7 14-2 34-2 64-2 30 0 50 0 64 2 14 2 18 5 21 7 2 3 5 7 7 21 2 14 2 34 2 64 0 30 0 50-2 64-2 14-5 18-7 21-3 2-7 5-21 7-14 2-34 2-64 2-30 0-50 0-64-2z m64 314c30 0 50 0 64 2 14 2 18 5 21 7 2 3 5 7 7 21 2 14 2 34 2 64 0 30 0 50-2 64-2 14-5 18-7 21-3 2-7 5-21 7-14 2-34 2-64 2-30 0-50 0-64-2-14-2-18-5-21-7-2-3-5-7-7-21-2-14-2-34-2-64 0-30 0-50 2-64 2-14 5-18 7-21 3-2 7-5 21-7 14-2 34-2 64-2z m-585-321c-2-3-5-7-7-21-2-14-2-34-2-64 0-30 0-50 2-64 2-14 5-18 7-21 3-2 7-5 21-7 14-2 34-2 64-2 30 0 50 0 64 2 14 2 18 5 21 7 2 3 5 7 7 21 2 14 2 34 2 64 0 30 0 50-2 64-2 14-5 18-7 21-3 2-7 5-21 7-14 2-34 2-64 2-30 0-50 0-64-2-14-2-18-5-21-7z m179 415c0 30 0 50-2 64-2 14-5 18-7 21-3 2-7 5-21 7-14 2-34 2-64 2-30 0-50 0-64-2-14-2-18-5-21-7-2-3-5-7-7-21-2-14-2-34-2-64 0-30 0-50 2-64 2-14 5-18 7-21 3-2 7-5 21-7 14-2 34-2 64-2 30 0 50 0 64 2 14 2 18 5 21 7 2 3 5 7 7 21 2 14 2 34 2 64l0 0z" horiz-adv-x="1000" />

<glyph glyph-name="bubble-chat-question" unicode="&#xe814;" d="M222-98l-1 0c-18 0-36 2-54 5-11 2-20 10-23 20-4 10-2 22 5 30 19 24 33 54 39 85 1 9-4 21-14 31-78 80-122 185-122 295 0 237 201 430 448 430 247 0 448-193 448-430 0-237-201-430-448-430-29 0-58 3-86 8-11 2-21 4-25 4-4-1-14-7-25-12l0-1c-44-23-93-35-142-35z m278 833c-212 0-385-164-385-367 0-94 37-183 104-251 25-25 36-57 30-87-4-23-12-45-22-65 37 0 74 10 107 28l1 0c22 12 33 17 44 19 12 2 23 0 46-4l0 0 0 0c25-5 50-7 75-7 213 0 385 165 385 367 0 203-172 368-385 368z m0-500l0 0c-17 1-31 14-31 32l0 19c0 42 28 74 52 102l0 0 0 0c9 10 17 19 24 28 5 7 7 15 7 24 0 25-23 45-52 45-29 0-52-20-52-45 0-17-14-31-31-31-18 0-32 14-32 31 0 59 52 108 115 108 63 0 115-49 115-108 0-21-7-42-19-60-8-11-18-22-27-33l0 0-1-1 0 0c-18-20-37-42-37-60l0-19c0-18-14-31-31-32z m-31-72c0 17 14 31 31 31l0 0c18 0 32-14 32-31 0-18-14-32-32-32-17 0-31 14-31 32z" horiz-adv-x="1000" />

<glyph glyph-name="cellular-network" unicode="&#xe815;" d="M531 365l0-348c0-18-14-32-31-32-17 0-31 14-31 32l0 348c-48 13-84 58-84 110 0 63 52 115 115 115 63 0 115-52 115-115 0-52-36-97-84-110z m341 337c48-65 76-143 76-227 0-84-28-162-76-227-11-14-30-17-44-6-14 10-17 30-7 43 41 55 64 120 64 190 0 70-23 135-64 190-10 14-7 33 7 43 14 11 33 8 44-6z m-693-37c-41-55-64-120-64-190 0-70 23-135 64-190 10-13 7-33-7-43-14-11-33-8-44 6-48 65-76 143-76 227 0 84 28 162 76 227 11 14 30 17 44 6 14-10 17-29 7-43z m509-40c14 10 33 8 44-6 31-41 49-91 49-144 0-53-18-103-49-144-11-14-30-16-44-6-14 11-17 30-6 44 24 31 37 68 37 106 0 39-13 75-37 106-11 14-8 34 6 44z m-376 0c14-10 17-30 6-44-23-31-37-67-37-106 0-38 14-75 37-106 11-14 8-33-6-44-13-10-33-8-43 6-32 41-50 91-50 144 0 53 18 103 50 144 10 14 30 16 43 6z m136-150c0-29 23-52 52-52 29 0 52 23 52 52 0 29-23 52-52 52-29 0-52-23-52-52z" horiz-adv-x="1000" />

<glyph glyph-name="clean" unicode="&#xe816;" d="M862 748c12-12 12-32 1-44l-301-334c10-11 19-23 24-37 7-20 6-38 4-57l0-4c-10-111-46-191-81-244-18-26-35-46-47-58-7-7-12-12-16-15-2-2-4-3-5-4 0 0-1-1-1-1l-1 0 0 0 0-1 0 0c0 0 0 1-17 26l17-26c-7-5-16-7-25-4-84 21-160 60-218 131-58 71-94 171-105 310 0 10 4 21 12 27 9 7 20 8 29 4 73-30 145-36 236 0l2 1c21 9 39 16 54 20 15 5 31 8 47 4 15-3 28-11 39-21 3-2 6-5 9-7l300 332c12 13 31 14 43 2z m-421-370c-12-3-28-10-51-19-88-35-163-36-234-16 8-59 21-108 39-149 1 0 3 0 5 0 10 0 23 0 40 2 33 4 78 18 123 54 13 10 32 8 42-6 10-14 8-33-5-44-55-44-111-61-152-66-7-1-12-2-18-2 4-5 8-10 12-15 44-55 103-88 172-108 2 2 4 4 6 6 10 10 25 26 40 49 29 44 62 114 70 213 2 25 2 29 0 34-2 5-5 9-24 29-16 16-25 26-34 33-7 6-11 8-13 8-2 0-6 1-18-3z m-230 170c0 46 36 83 80 83 44 0 80-37 80-83 0-46-36-83-80-83-44 0-80 37-80 83z m270 135l0-4c0-23-18-41-40-41-22 0-40 18-40 41l0 4c0 23 18 42 40 42 22 0 40-19 40-42z m-190-114c-11 0-20-10-20-21 0-12 9-21 20-21 11 0 20 9 20 21 0 11-9 21-20 21z" horiz-adv-x="1000" />

<glyph glyph-name="congruent-to-square" unicode="&#xe817;" d="M498 777l4 0c92 0 163 0 219-7 58-8 103-24 139-60 36-36 52-81 60-139 7-56 7-127 7-219l0-4c0-92 0-163-7-219-8-58-24-103-60-139-36-36-81-52-139-60-56-7-127-7-219-7l-4 0c-92 0-163 0-219 7-58 8-103 24-139 60-36 36-52 81-59 139-8 56-8 127-8 219l0 4c0 92 0 163 8 219 7 58 23 103 59 139 36 36 81 52 139 60 56 7 127 7 219 7l0 0z m-314-111c-22-22-35-53-42-103-6-51-7-119-7-213 0-94 1-162 7-213 7-50 20-80 42-103 23-22 53-35 103-42 51-7 119-7 213-7 94 0 162 0 213 7 50 7 81 20 103 42 22 23 35 53 42 103 7 51 7 119 7 213 0 94 0 162-7 213-7 50-20 81-42 103-22 22-53 35-103 42-51 7-119 7-213 7-94 0-162 0-213-7-50-7-80-20-103-42z m135-227c-8-15-27-20-42-12-15 8-21 27-13 42 26 48 71 75 119 79 47 3 95-13 135-47 1-1 2-1 3-2 29-26 62-36 91-34 28 2 53 17 69 46 8 15 27 21 42 13 15-9 21-27 13-43-26-48-70-74-119-78-46-4-95 13-135 46-1 1-2 2-2 3-30 25-63 36-92 33-28-2-53-16-69-46z m-27-79l416 0c18 0 32-14 32-31 0-17-14-31-32-31l-416 0c-18 0-32 14-32 31 0 17 14 31 32 31z m0-145l416 0c18 0 32-14 32-32 0-17-14-31-32-31l-416 0c-18 0-32 14-32 31 0 18 14 32 32 32z" horiz-adv-x="1000" />

<glyph glyph-name="cupcake-03" unicode="&#xe818;" d="M614 774c4-16-6-33-23-38-27-6-42-18-50-29 34-13 61-42 70-78 46-8 86-36 111-71 19-28 30-62 25-97 64-11 118-64 118-133 0-65-41-106-88-123l-46-161c-8-28-15-51-22-69-8-20-19-37-36-50-17-13-37-18-57-21-20-2-44-2-73-2l-86 0c-28 0-53 0-72 2-21 3-41 8-58 21-17 13-27 30-35 50-8 18-15 41-23 69l-46 161c-47 17-88 58-88 123 0 69 55 122 119 133-6 35 5 69 24 97 25 35 65 63 111 71 11 41 43 73 85 83 10 32 40 70 102 85 17 4 34-6 38-23z m-285-252c-19-27-19-53-3-72 9-10 10-25 3-36-7-11-20-17-33-15-51 11-98-27-98-71 0-41 31-67 72-71 41-3 78 17 86 56 3 15 16 25 31 25 14 0 27-10 30-25 8-35 42-57 83-57 41 0 75 22 83 57 3 15 16 25 30 25 15 0 28-10 31-25 9-39 45-59 86-56 41 4 72 30 72 71 0 44-47 82-98 71-13-2-26 4-33 15-7 11-5 26 3 36 16 19 16 45-3 72-15 20-37 36-62 43-15-46-58-80-109-80-51 0-94 34-109 80-25-7-47-23-62-43z m380-327c-35 3-71 17-96 45-29-32-73-46-113-46-40 0-84 14-113 46-25-28-61-42-96-45l38-132c8-30 14-50 20-64 6-14 11-20 16-24 5-4 12-7 27-9 16-1 36-1 67-1l82 0c31 0 52 0 67 1 15 2 22 5 27 9 5 4 10 10 16 24 6 14 12 34 20 64z m-209 457c-29 0-52-23-52-52 0-29 23-52 52-52 29 0 52 23 52 52 0 29-23 52-52 52z" horiz-adv-x="1000" />

<glyph glyph-name="delivery-truck-01" unicode="&#xe819;" d="M564 650c-14 2-34 2-64 2l-417 0c-17 0-31 14-31 31 0 18 14 32 31 32l419 0 0 0c28 0 52 0 71-3 20-3 40-9 56-25 16-16 22-35 25-56 1-6 1-13 2-21 162-5 292-138 292-302l0-116c0-8 0-14-1-20-5-43-39-76-81-82-6 0-12 0-20 0l-6 0c-14-60-68-105-132-105-64 0-117 45-131 105l-153 0c-15-60-68-105-132-105-64 0-118 45-132 105-8 0-15 0-21 1-14 1-27 4-40 11-14 8-26 20-34 35-8 12-10 26-12 40-1 13-1 28-1 47l0 95c0 17 14 31 31 31 18 0 32-14 32-31l0-94c0-20 0-33 1-43 0-9 2-13 3-14 3-5 7-9 11-12 2-1 5-2 15-3 4 0 9-1 15-1 14 60 68 104 132 104 64 0 117-44 132-104l153 0c3 16 10 30 18 43-1 3-1 6-1 9l0 354c0 31 0 50-2 65-2 13-5 18-7 20-3 2-7 5-21 7z m280-498c10 0 13 0 14 0 14 2 25 13 27 28 0 1 0 3 0 13l0 115c0 129-101 234-229 240l0-302c16 7 34 10 52 10 64 0 118-44 132-104z m-761 438l250 0c18 0 32-14 32-32 0-17-14-31-32-31l-250 0c-17 0-31 14-31 31 0 18 14 32 31 32z m209-542c40 0 73 33 73 73 0 40-33 73-73 73-41 0-73-33-73-73l0 0c0-40 32-73 73-73z m416 0c41 0 73 33 73 73 0 40-32 73-73 73-40 0-73-33-73-73l0 0c1-40 33-73 73-73z m-625 417l167 0c17 0 31-14 31-32 0-17-14-31-31-31l-167 0c-17 0-31 14-31 31 0 18 14 32 31 32z" horiz-adv-x="1000" />

<glyph glyph-name="curling" unicode="&#xe81a;" d="M317 715l185 0c67 0 118-6 159-31 42-25 71-67 100-124l1-1 47-92c1-2 2-4 3-5l0 0c2-1 5-1 8-2 18-3 34-7 50-16 44-26 64-65 72-106 6-32 6-67 6-96l0-1c0-5 0-11 0-16 0-5 0-11 0-16l0 0c0-30 0-65-6-97-8-40-28-80-72-106-20-11-42-16-68-18-24-3-54-3-92-3l-420 0c-37 0-68 0-92 3-25 2-48 7-68 18-44 26-64 66-72 106-6 32-6 67-6 97l0 0c0 4 0 8 0 12 0 2 0 3 0 4 0 1 0 2 0 4 0 4 0 8 0 13l0 0c0 29 0 64 6 96 8 41 28 80 72 106 20 11 43 16 68 18 24 3 55 3 92 3l243 0c4 0 7 0 10 0 0 2 0 5 0 9-1 23-5 35-10 41-4 5-14 12-45 12l-171 0-1 0c-11 0-28 0-43 5-19 5-36 17-46 40-6 14-8 33-8 49 0 16 2 34 8 49 10 23 27 35 46 40 15 5 32 5 43 5z m-202-521c0-25 0-48 4-70 6-28 18-49 43-63 9-6 21-9 41-11 22-2 49-2 89-2l416 0c40 0 67 0 89 2 21 2 33 5 41 11 25 14 37 35 43 63 5 25 5 52 4 82l0 0 0 0c0 6 0 13 0 19 0 6 0 13 0 19l0 0 0 0c1 30 1 57-4 82-6 28-18 49-43 64-6 4-15 7-28 9l-1 0c-5 1-11 1-16 3-5 1-12 3-19 8-6 5-11 10-14 15-2 4-4 9-7 13l0 0-47 93 0 0c-29 56-51 84-77 99-26 16-61 22-127 22l-185 0c-13 0-21 0-27-2-2-1-3-1-3-2-1 0-1 0-2-3-2-3-4-12-4-24 0-12 2-21 4-25 1-2 1-2 2-3 0 0 1-1 3-1 6-2 14-2 27-2l171 0c40 0 72-10 92-35 20-23 24-53 25-78l0-2 0 0 0 0c1-8 1-17 0-25 0-10-3-22-13-32-10-10-22-13-31-15-8-1-18-1-27-1l-242 0c-40 0-67 0-89-2-20-2-32-5-41-10-25-15-37-36-43-64-4-22-4-45-4-70l385 0c17 0 31-14 31-31 0-17-14-31-31-31z" horiz-adv-x="1000" />

<glyph glyph-name="delivery-tracking-02" unicode="&#xe81b;" d="M157 777l686 0 0 0c14 0 28 0 38-1 12-1 24-4 36-12 9-6 17-14 23-24 6-13 8-25 8-37 0-11-1-24-3-38l0 0 0-3 0 0c-3-24-5-45-8-61-3-18-9-34-19-48-4-5-8-9-12-13 0-1 0-2 0-2l0-63c0-17-14-31-31-31-17 0-31 14-31 31l0 34c-4 0-7-1-11-1-17-2-37-2-62-2l-542 0c-24 0-45 0-62 2-4 0-7 1-11 1l0-181c0-80 0-136 6-178 6-42 16-66 34-83 18-18 42-28 84-34 42-6 99-6 178-6l63 0c17 0 31-14 31-31 0-17-14-31-31-31l-65 0c-77 0-137 0-185 6-48 6-88 20-119 51-31 31-45 71-52 119-6 48-6 108-6 184l0 213c0 0 0 1 0 2-4 4-8 8-12 13-10 14-16 30-19 48-3 16-5 37-8 61l0 2 0 1 0 0c-2 14-3 27-3 38 0 12 2 24 9 37 5 10 13 18 22 24 12 8 24 11 36 12 11 1 24 1 38 1z m593-375c110 0 198-90 198-199 0-64-26-113-73-155-27-24-59-65-81-98-8-13-23-27-44-27-22 0-37 14-44 27-20 33-54 74-81 98-47 42-73 91-73 155 0 109 88 199 198 199z m-632 311c-1-1-2-2-3-4 0 0 0-2 0-6 0-7 1-17 2-33 3-26 5-44 7-57 3-13 6-19 9-23 4-5 9-10 15-14 5-2 11-5 25-6 13-1 31-1 58-1l538 0c27 0 45 0 59 1 13 1 19 4 24 6 6 4 11 9 16 14 2 4 5 10 8 23 2 13 4 31 7 57 2 16 2 26 2 33 0 4 0 6 0 6-1 2-2 3-3 4-1 0-2 0-7 1-7 1-17 1-33 1l-684 0c-16 0-26 0-33-1-4-1-6-1-7-1z m497-510c0-43 16-77 52-108 28-25 60-64 83-99 23 34 55 73 84 99 35 31 51 65 51 108 0 76-60 137-135 137-74 0-135-61-135-137z m-198 241l83 0c17 0 31-14 31-31 0-18-14-32-31-32l-83 0c-18 0-32 14-32 32 0 17 14 31 32 31z m291-240c0 23 19 42 42 42l0 0c23 0 42-19 42-42 0-23-19-41-42-41l0 0c-23 0-42 18-42 41z" horiz-adv-x="1000" />

<glyph glyph-name="door-02" unicode="&#xe81c;" d="M627 798c38 0 69 0 94-3 26-4 49-12 68-31 19-19 27-42 31-68 3-25 3-56 3-94l0-637 52 0c17 0 31-14 31-32 0-17-14-31-31-31l-750 0c-17 0-31 14-31 31 0 18 14 32 31 32l52 0 0 637c0 38 0 69 3 94 4 26 12 49 31 68 19 19 42 27 68 31 25 3 56 3 94 3l254 0z m133-198c0 40 0 67-2 87-3 20-7 28-13 33-5 6-13 10-33 13-20 2-47 2-87 2l-250 0c-40 0-67 0-87-2-19-3-28-7-33-13-6-5-10-13-13-33-2-20-2-47-2-87l0-635 520 0z m-62-208l0-84c0-17-14-31-31-31-18 0-32 14-32 31l0 84c0 17 14 31 32 31 17 0 31-14 31-31z" horiz-adv-x="1000" />

<glyph glyph-name="add-01" unicode="&#xe81d;" d="M531 683l0-302 302 0c18 0 32-14 32-31 0-17-14-31-32-31l-302 0 0-302c0-18-14-32-31-32-17 0-31 14-31 32l0 302-302 0c-18 0-32 14-32 31 0 17 14 31 32 31l302 0 0 302c0 18 14 32 31 32 17 0 31-14 31-32z" horiz-adv-x="1000" />

<glyph glyph-name="ai-mail-02" unicode="&#xe81e;" d="M115 432c-1-41-1-81 0-122 2-65 3-110 9-145 6-33 16-55 33-72 18-18 40-28 74-34 36-7 82-8 149-10 54-1 108-1 161-1 18 0 32-14 32-31 0-17-14-31-31-31-55-1-109 0-164 1l-2 0c-64 2-115 3-156 10-43 8-77 22-107 51-29 30-43 64-51 106-7 41-8 91-9 152l0 3c-1 41-1 83 0 124l0 2c1 62 2 112 9 152 8 43 22 77 51 106 30 30 64 44 107 52 41 7 92 8 156 10l2 0c82 2 162 2 244 0l2 0c64-2 115-3 156-10 43-8 78-22 107-52 29-29 44-63 51-106 7-40 8-90 9-152l0-2c1-41 1-83 0-124 0-18-14-31-32-31-17 1-31 15-30 32 1 41 1 81 0 122-1 57-2 98-7 131l-234-132c-54-31-98-50-144-50-46 0-90 19-144 50l-234 132c-5-33-5-74-7-131z m505 260c-80 2-160 2-240 0-67-1-113-3-149-9-34-6-56-16-74-34-7-7-13-15-18-24l248-140c52-30 84-41 113-41 29 0 61 11 113 41l248 140c-5 9-11 17-18 24-18 18-39 28-74 34-36 6-82 8-149 9z m180-414l11-29c15-41 20-52 28-60 8-8 19-13 60-28l29-11c12-4 20-16 20-29 0-13-8-25-20-29l-29-11c-41-15-52-20-60-28-8-8-13-19-28-60l-11-29c-4-12-16-20-29-20-13 0-25 8-29 20l-11 29c-15 41-20 52-28 60-8 8-19 13-60 28l-29 11c-12 4-20 16-20 29 0 13 8 25 20 29l29 11c41 15 52 20 60 28 8 8 13 19 28 60l11 29c4 12 16 20 29 20 13 0 25-8 29-20z m-53-133c-10-10-21-18-35-24 14-7 25-14 35-24 10-10 17-21 24-35 6 14 14 25 24 35 10 10 21 17 35 24-14 6-25 14-35 24-10 10-18 21-24 35-7-14-14-25-24-35z" horiz-adv-x="1000" />

<glyph glyph-name="all-bookmark" unicode="&#xe81f;" d="M425 673l5 0c71 0 128 0 173-6 46-7 84-20 113-51 30-30 43-68 49-115 6-46 6-104 6-178l0-225c0-46 0-83-4-112-4-29-14-58-42-74-26-14-54-11-77-4-23 8-47 22-69 36-21 15-42 31-61 46l-2 2c-18 14-33 25-44 33-15 10-25 16-33 20-7 3-10 4-12 4-2 0-5-1-12-4-8-4-17-10-33-20-11-8-25-19-44-33l0 0 0 0-2-2c-18-15-39-31-61-46-22-14-45-28-69-36-23-7-51-10-77 4-28 16-37 45-42 74-4 29-4 66-4 112l0 225c0 74 0 132 6 178 7 47 20 85 49 115 30 31 67 44 113 51 45 6 102 6 174 6l0 0z m-242-100c-16-17-26-40-32-80-5-42-5-96-5-172l0-220c0-49 0-83 3-106 4-23 9-27 11-28 4-3 12-4 27 1 15 5 33 15 53 28 19 13 39 29 58 43l3 3c17 13 33 26 47 35l1 1c14 9 27 17 38 23 12 6 25 10 40 10 15 0 28-4 40-10 11-6 24-14 38-23l1-1c14-9 30-22 47-35l4-3c18-14 38-30 57-43 20-13 38-23 53-28 16-5 23-4 27-1 2 1 8 5 11 28 3 23 3 57 3 106l0 220c0 76 0 130-5 172-5 40-15 63-32 80-16 16-38 27-77 32-40 5-92 5-167 5-74 0-127 0-167-5-39-5-61-16-77-32z m489 155c-54 7-125 7-224 7l-83 0c-18 0-32 14-32 32 0 17 14 31 32 31l85 0c97 0 172 0 231-8 60-8 107-25 145-62 37-37 54-85 62-145 8-59 8-134 8-231l0-252c0-17-14-31-31-31-18 0-32 14-32 31l0 250c0 99 0 170-7 224-7 54-21 86-44 110-24 23-56 37-110 44z" horiz-adv-x="1000" />

<glyph glyph-name="automotive-battery-01" unicode="&#xe820;" d="M301 756l3 0c13 0 25 0 36-1 11-1 23-3 34-11 8-5 15-12 20-20 8-11 10-23 11-34 1-11 1-23 1-36l0 0 0-2 188 0 0 2c0 13 0 25 1 36 1 11 4 23 11 34 5 8 12 15 20 20 11 8 23 10 35 11 10 1 22 1 36 1l2 0c14 0 26 0 36-1 11-1 23-3 35-11 8-5 15-12 20-20 7-11 10-23 11-34 1-11 1-23 1-36l0-6c2 0 4 0 6-1 38-5 69-16 94-41 25-25 36-56 41-94 5-36 5-82 5-139l0-150c0-57 0-103-5-139-5-38-16-69-41-95-25-25-56-35-94-40-36-5-82-5-139-5l-338 0c-57 0-103 0-139 5-37 5-69 15-94 40-25 26-36 57-41 95-5 36-5 82-5 139l0 150c0 57 0 103 5 139 5 38 16 69 41 94 25 25 57 36 94 41 2 1 4 1 6 1l0 6c0 13 0 25 1 36 1 11 4 23 11 34 6 8 12 15 20 20 12 8 24 10 35 11 10 1 22 1 36 1z m324-166l-292 0c-59 0-101 0-133-5-30-4-46-11-58-23-11-11-19-28-23-58-4-32-4-73-4-133l0-146c0-60 0-101 4-133 4-31 12-47 23-58 12-12 28-19 58-23 32-5 74-5 133-5l334 0c60 0 101 0 133 5 30 4 46 11 58 23 12 11 19 27 23 58 4 32 4 73 4 133l0 146c0 60 0 101-4 133-4 30-11 47-23 58-12 12-28 19-58 23-32 5-73 5-133 5l-42 0z m83-63c18 0 32-14 32-31l0-52 52 0c17 0 31-14 31-31 0-18-14-32-31-32l-52 0 0-52c0-17-14-31-32-31-17 0-31 14-31 31l0 52-52 0c-17 0-31 14-31 32 0 17 14 31 31 31l52 0 0 52c0 17 14 31 31 31z m-500-83l167 0c17 0 31-14 31-31 0-18-14-32-31-32l-167 0c-17 0-31 14-31 32 0 17 14 31 31 31z m532 208l0 0c0 15 0 25-1 31 0 4-1 6-1 6-1 1-2 2-3 3 0 0-2 1-6 1-7 1-16 1-31 1-15 0-24 0-31-1-4 0-6-1-6-1-1-1-2-2-3-3 0 0-1-2-1-6-1-6-1-16-1-31l13 0c26 0 49 0 71 0z m-397 31c0 4-1 6-1 6-1 1-2 2-3 3 0 0-2 1-6 1-6 1-16 1-31 1-15 0-24 0-31-1-4 0-6-1-6-1-1-1-2-2-3-3 0 0 0-2-1-6 0-6-1-16-1-31l0 0c22 0 45 0 71 0l13 0c0 15 0 25-1 31z m392 9l0 0c0 0 0 0 0 0z m-74 0l0 0c0 0 0 0 0 0z m-396 0l0 0c0 0 0 0 0 0z m74 0l0 0c0 0 0 0 0 0z m-77-3l0 0c0 0 0 0 0 0z m476 0l0 0c0 0 0 0 0 0z" horiz-adv-x="1000" />

<glyph glyph-name="blood-type" unicode="&#xe821;" d="M622 749c53-51 119-121 171-201 52-79 92-172 92-268 0-186-146-378-385-378-239 0-385 192-385 378 0 96 40 189 92 268 53 80 118 150 171 201 69 65 175 65 244 0z m-201-45c-51-49-113-115-161-190-49-75-83-155-83-234 0-156 122-315 323-315 201 0 323 159 323 315 0 79-34 159-83 234-48 75-110 141-161 190-45 42-113 42-158 0z m166-472l-16 33-142 0-16-33-10-21c-8-15-26-22-42-14-15 8-22 26-14 42l10 20c6 13 15 31 25 51 18 37 41 81 58 117 9 18 17 33 23 45 3 5 5 10 7 13 1 2 1 3 2 4 0 1 1 2 1 3 1 0 1 1 2 2 1 1 2 2 4 4 1 1 2 2 5 4 2 1 8 4 16 4 8 0 14-3 16-4 3-2 4-3 5-4 2-2 3-3 4-4 1-1 1-2 2-2 0-1 1-2 1-3 1-1 2-2 2-4 2-3 4-8 7-13 6-12 14-27 23-45 17-36 40-80 58-117 10-20 19-38 25-51l10-20c8-16 1-34-14-42-16-8-34-1-42 14z m-83 167l-4 7-4-7c-11-22-23-47-36-72l80 0c-13 25-25 50-36 72z" horiz-adv-x="1000" />

<glyph glyph-name="bubble-chat-translate" unicode="&#xe822;" d="M500 798c246 0 448-191 448-430 0-239-202-430-448-430-29 0-58 3-86 8-10 2-16 3-21 4-2 0-3 0-4 0l0 0c0 0 0 0 0 0 0 0 0 0-1 0 0 0 0 0 0 0 0 0 0 0 1 0-1 0-2-1-4-2-5-2-12-5-21-11-60-31-130-42-197-30-11 2-20 10-23 20-4 10-2 22 5 30 19 24 33 53 39 85 1 8-2 20-14 31-75 77-122 181-122 295 0 239 202 430 448 430z m-385-430c0-97 39-185 104-251 20-20 37-51 30-87l0 0c-4-23-12-45-22-65 37 0 74 10 107 28l1 0 0 0c9 5 17 9 23 12 6 3 13 6 21 7 8 1 16 1 22 0 7-1 15-3 23-4l1 0c25-5 50-7 75-7 214 0 385 166 385 367 0 202-171 367-385 367-214 0-385-165-385-367z m416 190l0-20 136 0c17 0 31-14 31-31 0-18-14-32-31-32l-37 0c-20-58-52-113-89-163l53-55c12-13 12-33-1-45-12-11-32-11-44 2l-47 49c-34-39-68-73-100-102-12-12-32-12-44 1-12 13-11 33 2 44 32 30 67 65 100 104-8 11-16 22-24 32-13 18-25 37-31 50-7 16 0 34 15 41 16 8 35 1 42-15 3-7 12-22 25-39 4-6 8-12 12-18 26 37 49 75 65 114l-231 0c-17 0-31 14-31 32 0 17 14 31 31 31l136 0 0 20c0 18 14 32 31 32 17 0 31-14 31-32z" horiz-adv-x="1000" />

<glyph glyph-name="center-focus" unicode="&#xe823;" d="M500 548c109 0 198-89 198-198 0-109-89-198-198-198-109 0-198 89-198 198 0 109 89 198 198 198z m-135-198c0-75 60-135 135-135 75 0 135 60 135 135 0 75-60 135-135 135-75 0-135-60-135-135z m562-160c-4-88-17-153-65-201-54-54-132-64-242-66-17-1-31 13-32 30 0 18 13 32 31 32 112 3 164 14 199 49 30 29 42 73 47 159 1 18 15 31 32 30 18-1 31-16 30-33z m-307 587c110-2 188-12 242-66 48-48 61-113 65-201 1-17-12-32-30-33-17-1-31 13-32 30-5 86-17 130-47 159-35 35-87 46-199 49-18 0-31 14-31 32 1 17 15 31 32 30z m-485-584c5-86 18-130 47-159 35-35 87-46 199-49 18 0 31-14 31-32 0-17-15-31-32-30-110 2-187 12-242 66-47 48-61 113-65 201-1 17 12 32 30 33 17 1 32-12 32-30z m246 522c-112-3-164-14-199-49-29-29-42-73-47-159 0-17-15-31-32-30-18 1-31 16-30 33 4 88 18 153 65 201 55 54 132 64 242 66 17 1 32-13 32-30 0-18-13-32-31-32z" horiz-adv-x="1000" />

<glyph glyph-name="cleaning-bucket" unicode="&#xe824;" d="M582 798c71 0 132-40 174-98 37-52 61-120 66-194l11 0 2 0 0 0c9 0 18 0 27-1 9-1 21-5 31-16 10-10 13-23 13-32 1-9 0-18-1-28l0 0 0-1-26-345 0 0c-3-35-5-64-9-87-5-24-14-46-32-63-19-18-41-25-65-28-23-3-52-3-86-3l-192 0c-34 0-63 0-85 3-25 3-47 10-65 28-26 24-34 58-38 87-2 14-3 29-3 42l0 7-14 0c-38 0-69 0-94 3-25 3-48 10-68 27-19 18-27 40-31 65-3 23-3 52-3 85l0 43c0 51 0 93 5 127 5 35 16 64 42 88 25 22 56 32 93 37 31 3 68 4 114 4 11 65 36 123 72 167 42 50 98 83 162 83z m-92-521l0-28c0-34 0-62-4-85-3-25-12-47-31-65-19-17-42-24-68-27-7-1-14-2-21-2l0-5c1-13 1-26 3-38 3-24 9-40 19-49 5-5 12-9 30-11 18-2 43-2 79-2l188 0c37 0 61 0 80 2 17 2 25 6 30 11 5 5 10 13 13 31 4 18 6 43 9 81l14 187z m269 229c-5 62-25 117-54 157-34 47-77 72-123 72-41 0-81-21-113-60-27-32-47-76-58-127l7 0c9 0 18 0 25-1 9-1 20-4 30-13 10-8 14-19 15-28z m-603-208l271 0 0 181c0 2 0 5 0 6-3 0-6 0-10 0l-42 0c-60 0-102 0-133-3-31-4-48-11-59-22-11-10-18-24-22-50-4-27-5-62-5-112z m680 42l7 93c0 4 0 8 1 11-3 0-7 0-11 0l-343 0 0-104 343 0c1 0 2 0 3 0z m-677-167c2-17 7-23 11-28 6-4 14-9 34-11 20-3 48-3 88-3 40 0 67 0 87 3 20 2 29 7 34 11 5 5 9 11 11 28 3 15 3 35 3 62l-271 0c0-27 1-47 3-62z" horiz-adv-x="1000" />

<glyph glyph-name="contact-01" unicode="&#xe825;" d="M333-98c-98 0-180 72-195 167l-34 0c-17 0-31 14-31 31 0 17 14 31 31 31l31 0 0 188-31 0c-17 0-31 14-31 31 0 17 14 31 31 31l31 0 0 188-31 0c-17 0-31 14-31 31 0 17 14 31 31 31l34 0c15 95 97 167 195 167l396 0c109 0 198-89 198-198l0-500c0-109-89-198-198-198z m-131 167c14-60 67-104 131-104l396 0c75 0 136 60 136 135l0 500c0 75-61 135-136 135l-396 0c-64 0-117-44-131-104l6 0c18 0 32-14 32-31 0-17-14-31-32-31l-10 0 0-188 10 0c18 0 32-14 32-31 0-17-14-31-32-31l-10 0 0-188 10 0c18 0 32-14 32-31 0-17-14-31-32-31z m258 42c-34 0-65 15-95 47-20 22-23 44-21 58 5 40 45 66 72 82 3 2 6 4 8 6 72 48 164 48 236 0 2-2 5-4 8-6 26-16 66-42 71-82 2-14 0-36-21-58-30-32-61-47-95-47l0 0z m82 249c-63 0-115 52-115 115 0 63 52 115 115 115 63 0 114-52 114-115 0-63-51-115-114-115z m-83-108l0 0c-3-2-6-4-10-6l0-1c-11-6-41-26-43-37 0-1 1-3 5-7 18-19 33-28 49-28l163 0c16 0 31 9 49 28 4 4 5 6 5 7-1 11-33 31-43 38l-2 1c-2 2-5 3-7 5-26 17-55 25-83 25l0 0c-29 0-58-8-83-25z m83 275c-29 0-52-23-52-52 0-29 23-52 52-52 28 0 52 23 52 52 0 29-24 52-52 52z" horiz-adv-x="1000" />

<glyph glyph-name="customer-service-01" unicode="&#xe826;" d="M500 735c-171 0-302-120-302-260l0-11c5 1 11 1 17 0 15-1 29-7 44-14l0 0 4-2 3-1c11-5 22-10 31-18 26-23 26-52 26-70l0-1 0-183 0-1c0-17 0-47-26-70-9-7-20-12-31-17l0 0-3-2-4-1 0 0c-15-7-29-14-44-15-43-3-68 26-82 44l0 0 0 0-1 1c-4 5-8 10-13 15-9 11-19 22-27 33-14 18-28 39-34 64-8 27-8 55 0 81 5 18 13 34 25 51 12 16 27 35 46 58l0 0 1 1c1 1 1 2 2 3l0 0c1 1 2 2 3 4l0 51c0 182 168 323 365 323 197 0 365-141 365-323l0-51c0-1 1-2 2-3l0 0 0 0c2-2 3-3 3-4l1-1c19-23 34-42 46-58 12-17 21-33 26-51 7-26 7-54 0-81-7-25-21-46-35-64-8-11-18-22-27-33-5-5-9-10-13-15l-2-3c-1 0-1-1-2-2-1-46-13-84-34-114-22-33-54-54-90-68-68-25-156-25-236-25l-4 0c-17 0-31 14-31 31 0 18 14 32 31 32 85 0 162 0 218 21 27 10 47 24 61 44 7 11 13 23 17 39-4 0-7 0-11 0-15 1-29 8-44 15l0 0-4 1-3 2c-14 6-42 19-53 50-4 12-4 24-4 35l0 3 0 183 0 3c0 11 0 24 4 35 11 32 39 44 53 51 1 0 2 1 3 1l4 2c15 7 29 13 44 14 6 1 11 1 17 0l0 11c0 140-131 260-302 260z m308-340c-3 3-5 4-6 5-3 1-8 2-12 2-3 0-6-1-27-11-9-4-14-6-18-9-3-2-4-4-5-6 0 0 0-1 0-3 0-3 0-7 0-15l0-183c0-7 0-12 0-15 0-2 0-3 0-3 1-2 2-3 5-5 4-3 9-6 18-10 21-9 24-10 27-11 4 0 9 1 12 3 2 1 4 3 18 20 6 7 11 13 16 19l0 0 0 0 0 0c8 9 15 17 23 27 11 15 20 29 23 43 5 15 5 32 0 48-2 8-7 17-16 31-10 14-24 31-44 55-3 4-5 6-6 8-1 2-3 3-4 5-1 1-3 3-4 5z m-610 3c-6-4-11-10-20-21-20-24-34-41-44-55-9-14-14-23-16-31-4-16-4-33 0-48 4-14 12-28 23-43 8-10 15-18 23-27l0 0 0 0c5-6 10-12 16-19 8-10 13-16 18-19 4-3 7-4 12-4 3 1 6 2 27 11 16 7 18 9 19 10 2 1 3 3 3 5 1 4 1 9 1 18l0 183c0 10 0 15-1 18 0 3-1 4-3 6-1 1-3 2-19 9-21 10-24 11-27 11-5 0-8-1-12-4z" horiz-adv-x="1000" />

<glyph glyph-name="add-circle" unicode="&#xe827;" d="M500-98c-247 0-448 201-448 448 0 247 201 448 448 448 247 0 448-201 448-448 0-247-201-448-448-448z m-385 448c0-213 172-385 385-385 213 0 385 172 385 385 0 213-172 385-385 385-213 0-385-172-385-385z m416 167l0-136 136 0c17 0 31-14 31-31 0-17-14-31-31-31l-136 0 0-136c0-17-14-31-31-31-17 0-31 14-31 31l0 136-136 0c-17 0-31 14-31 31 0 17 14 31 31 31l136 0 0 136c0 17 14 31 31 31 17 0 31-14 31-31z" horiz-adv-x="1000" />

<glyph glyph-name="add-square" unicode="&#xe828;" d="M498 777l4 0c92 0 163 0 219-7 58-8 103-24 139-60 36-36 52-81 60-139 7-56 7-127 7-219l0-4c0-92 0-163-7-219-8-58-24-103-60-139-36-36-81-52-139-60-56-7-127-7-219-7l-4 0c-92 0-163 0-219 7-58 8-103 24-139 60-36 36-52 81-59 139-8 56-8 127-8 219l0 4c0 92 0 163 8 219 7 58 23 103 59 139 36 36 81 52 139 60 56 7 127 7 219 7l0 0z m-314-111c-22-22-35-53-42-103-6-51-7-119-7-213 0-94 1-162 7-213 7-50 20-80 42-103 23-22 53-35 103-42 51-7 119-7 213-7 94 0 162 0 213 7 50 7 81 20 103 42 22 23 35 53 42 103 7 51 7 119 7 213 0 94 0 162-7 213-7 50-20 81-42 103-22 22-53 35-103 42-51 7-119 7-213 7-94 0-162 0-213-7-50-7-80-20-103-42z m347-149l0-136 136 0c17 0 31-14 31-31 0-17-14-31-31-31l-136 0 0-136c0-17-14-31-31-31-17 0-31 14-31 31l0 136-136 0c-17 0-31 14-31 31 0 17 14 31 31 31l136 0 0 136c0 17 14 31 31 31 17 0 31-14 31-31z" horiz-adv-x="1000" />

<glyph glyph-name="add-team" unicode="&#xe829;" d="M354 715c98 0 177-80 177-177 0-98-79-178-177-178-98 0-177 80-177 178 0 97 79 177 177 177z m-302-627c0 118 103 210 225 210l155 0c50 0 96-15 133-41 15-10 18-30 8-44-9-14-29-17-43-8-27 19-61 30-98 30l-155 0c-92 0-162-68-162-147 0-20 18-40 46-40l387 0c17 0 31-14 31-31 0-18-14-32-31-32l-387 0c-58 0-109 44-109 103z m188 450c0-64 51-115 114-115 64 0 115 51 115 115 0 63-51 114-115 114-63 0-114-51-114-114z m583-271l0-94 94 0c17 0 31-14 31-31 0-18-14-32-31-32l-94 0 0-93c0-18-14-32-31-32-18 0-32 14-32 32l0 93-93 0c-18 0-32 14-32 32 0 17 14 31 32 31l93 0 0 94c0 17 14 31 32 31 17 0 31-14 31-31z m-260 448c97 0 177-80 177-177 0-98-80-178-177-178-18 0-32 14-32 32 0 17 14 31 32 31 63 0 114 51 114 115 0 63-51 114-114 114-18 0-32 14-32 31 0 18 14 32 32 32z" horiz-adv-x="1000" />

<glyph glyph-name="adventure" unicode="&#xe82a;" d="M863 665l-31-127c-6-24-20-45-39-61l-316-260 21-20c21-22 33-51 33-81l0-16c0-17-14-31-31-31-17 0-31 14-31 31l0 16c0 13-6 27-15 36l-54 54-86-86c17-35 11-78-18-107-37-37-96-37-133 0-37 37-37 96 0 133 29 28 72 34 107 18l86 86-53 54c-10 9-23 15-37 15l-16 0c-17 0-31 14-31 31 0 17 14 31 31 31l16 0c30 0 59-12 81-33l20-21 260 316c16 19 37 33 61 39l127 31c29 8 56-19 48-48z m-378 64c-11-5-27-14-49-27-46-26-93-41-139-51-43-9-74-16-96-22-22-7-30-13-33-17-4-4-8-12-10-29-2-19-2-43-2-79l0-69c0-17-14-31-31-31-17 0-31 14-31 31l0 71c0 34 0 62 2 84 3 23 9 44 23 62 16 19 39 29 64 36 25 8 58 15 100 24l0 0 1 0c41 9 82 23 121 45l1 0c21 12 38 22 52 29 13 6 27 12 42 12 15 0 30-6 42-12 14-7 31-17 52-29l1 0c15-9 20-28 12-43-9-15-28-20-43-12-22 13-37 22-49 27-10 5-14 6-15 6l0 0 0 0c-1 0-5-1-15-6z m390-306c17 0 31-14 31-31 0-70-1-115-13-157-17-60-48-116-92-162-35-37-81-66-163-117l-5-3-4-2c-34-22-57-36-82-43-15-4-31-6-47-6-17 0-31 14-31 31 0 18 14 32 31 32 10 0 21 1 31 4 14 4 29 12 69 38 88 54 126 78 156 109 36 39 63 85 77 136 9 33 11 69 11 140 0 17 14 31 31 31z m-442-162l320 264c9 7 15 17 18 28l23 91-91-23c-11-3-21-9-28-18l-264-320z m-182-160c-12 13-32 13-44 0-12-12-12-32 0-44 12-12 32-12 44 0 13 12 13 32 0 44z" horiz-adv-x="1000" />

<glyph glyph-name="ai-beautify" unicode="&#xe82b;" d="M671 561c12-6 21-15 31-25l2-3 3-2c9-10 19-19 25-31 10-21 10-46 0-67-6-12-16-21-25-31l-3-2-441-442-3-2c-9-10-19-20-30-25-21-11-46-11-68 0-11 5-21 15-30 25l-3 2-2 3c-10 9-20 19-25 30-11 22-11 47 0 68 5 11 15 21 25 31l2 2 442 441 2 3c10 10 19 19 31 25 21 10 46 10 67 0z m-177-193l-321-320c-6-6-10-10-13-13-2-3-2-4-2-4-2-4-2-8 0-12 0 0 0-1 2-3 3-3 7-7 13-13 7-7 11-11 14-14 2-2 3-2 3-2 4-2 8-2 12 0 0 0 1 0 3 2 3 3 7 7 14 14l320 320z m289-28c5 12 16 20 30 20 13 0 24-8 29-20l4-12c4-9 5-14 7-17 1-1 1-2 1-3 1 0 1 0 3-1 3-1 8-3 16-6l13-5c12-5 20-16 20-29 0-13-8-25-20-30l-13-4c-8-3-13-5-16-7-2 0-2-1-3-1 0 0 0-1-1-2-2-4-3-9-7-17l-4-13c-5-12-16-20-29-20-14 0-25 8-30 20l-4 13c-4 8-5 13-7 17-1 1-1 2-1 2-1 0-1 1-3 1-3 2-8 4-16 7l-13 4c-12 5-20 17-20 30 0 13 8 24 20 29l13 5c8 3 13 5 16 6 2 1 2 1 3 1 0 1 0 2 1 3 2 3 3 8 7 17z m0 417c5 12 16 20 30 20 13 0 24-8 29-20l4-13c4-8 5-13 7-16 1-2 1-3 1-3 1 0 1-1 3-1 3-2 8-3 16-7l13-4c12-5 20-17 20-30 0-13-8-24-20-29l-13-5c-8-3-13-4-16-6-2-1-2-1-3-1 0-1 0-1-1-3-2-3-3-8-7-17l-4-12c-5-12-16-20-29-20-14 0-25 8-30 20l-4 12c-4 9-5 14-7 17-1 2-1 2-1 3-1 0-1 0-3 1-3 2-8 3-16 6l-13 5c-12 5-20 16-20 29 0 13 8 25 20 30l13 4c8 4 13 5 16 7 2 0 2 1 3 1 0 0 0 1 1 3 2 3 3 8 7 16z m-345 20c13 0 24-8 29-20l4-13c4-8 5-13 7-16 1-2 1-3 1-3 1 0 1-1 3-1 3-2 8-3 16-7l13-4c12-5 20-17 20-30 0-13-8-24-20-29l-13-5c-8-3-13-4-16-6-2-1-2-1-3-1 0-1 0-1-1-3-2-3-3-8-7-17l-4-12c-5-12-16-20-29-20-14 0-25 8-30 20l-4 12c-4 9-5 14-7 17-1 2-1 2-1 3-1 0-1 0-3 1-3 2-8 3-16 6l-13 5c-12 5-20 16-20 29 0 13 8 25 20 30l13 4c8 4 13 5 16 7 2 0 2 1 3 1 0 0 0 1 1 3 2 3 3 8 7 16l4 13c5 12 16 20 30 20z m205-272c-3 2-8 2-12 0 0 0-1-1-3-3-3-3-7-6-13-13l-77-76 45-46 77 77c6 6 10 10 13 13 2 2 3 3 3 4 2 3 2 8 0 12 0 0-1 1-3 3-3 3-7 7-13 13-6 7-10 10-13 13-2 2-3 3-4 3z m211 137l0 0c0 0 0 0 0 0z m-375 0l0 0c0 0 0 0 0 0z m292 83l0 0c0 0 0 0 0 0z m-375 0l0 0c0 0 0 0 0 0z m458 0c0 0 0 0 0 0l0 0z" horiz-adv-x="1000" />

<glyph glyph-name="ai-book" unicode="&#xe82c;" d="M557 798c61 0 111-1 151-6 49-7 88-21 120-52 31-31 45-71 51-120 6-47 6-108 6-184l0-291c0-1 0-1 0-1l0-2 0 0c0-18-14-31-31-31-40 0-73-33-73-73 0-41 33-73 73-73 17 0 31-14 31-32 0-17-14-31-31-31l-604 0c-75 0-135 61-135 136l0 432c0 61 1 110 6 150 7 49 20 89 52 120 31 31 70 45 119 52 40 5 90 6 151 6z m-6-63l-102 0c-64 0-111 0-148-5-42-6-67-17-84-34-18-18-28-42-34-84-5-37-6-84-6-148l0-312c21 13 46 21 73 21l573 0 0 260c0 80 0 136-6 179-5 42-16 66-34 84-17 17-41 28-83 34-37 5-85 5-149 5z m189-624l-490 0c-40 0-73-33-73-73 0-41 33-73 73-73l490 0c-13 21-21 46-21 73 0 26 8 51 21 73z m-317 479c26 0 50-16 59-42l61-188c5-17-4-34-21-40-16-5-34 4-39 20l-13 41-94 0-13-41c-5-16-23-25-39-20-17 6-26 23-20 40l61 188c8 26 33 42 58 42z m202 0c17 0 31-14 31-32l0-208c0-17-14-31-31-31-17 0-31 14-31 31l0 208c0 18 14 32 31 32z m-202-64l-26-82 53 0z" horiz-adv-x="1000" />

<glyph glyph-name="ai-brain-01" unicode="&#xe82d;" d="M500-49c-25-30-62-49-104-49-65 0-119 46-132 107-73 13-129 77-129 154 0 16 3 31 7 45-53 25-90 79-90 142 0 63 37 117 90 142-4 14-7 30-7 46 0 76 56 140 129 153 13 61 67 107 132 107 42 0 79-19 104-49 25 30 62 49 104 49 65 0 119-46 133-107 72-13 128-77 128-153 0-16-3-32-7-46 53-25 90-79 90-142 0-63-37-117-90-142 4-14 7-29 7-45 0-77-56-141-128-154-14-61-68-107-133-107-42 0-79 19-104 49z m31 87c0-41 33-73 73-73 41 0 73 32 73 73 0 23-11 45-29 58-14 10-17 30-6 44 10 13 30 16 43 6 24-18 42-44 50-73 39 11 67 47 67 90 0 17-5 34-13 48-6 9-6 20-2 29 4 9 12 16 22 18 44 8 76 46 76 92 0 39-23 73-57 87-18-21-41-37-68-47-16-6-34 3-39 19-6 17 2 34 19 40 20 7 37 22 49 40 8 14 13 31 13 49 0 51-42 93-94 93-17 0-31 14-31 32 0 40-32 72-73 72-40 0-73-32-73-72z m-208 625c0-24 11-45 29-59 14-10 17-30 6-44-10-13-30-16-43-6-24 18-42 44-50 73-39-11-67-47-67-89 0-18 5-35 13-49 6-9 6-20 2-29-4-9-12-16-22-18-44-8-76-46-76-92 0-39 23-72 57-87 18 21 41 38 68 47 16 6 34-3 40-19 5-16-3-34-20-40-20-7-37-22-49-40-8-14-13-31-13-48 0-52 42-94 94-94 17 0 31-14 31-31 0-41 33-73 73-73 40 0 73 32 73 73l0 625c0 40-33 72-73 72-40 0-73-32-73-72z" horiz-adv-x="1000" />

<glyph glyph-name="ai-brain-02" unicode="&#xe82e;" d="M264 691c13 61 67 107 132 107 42 0 79-19 104-49 25 30 62 49 104 49 65 0 119-46 133-107 72-13 128-77 128-153 0-16-3-32-7-46 53-25 90-79 90-142 0-63-37-117-90-142 4-14 7-29 7-45 0-77-56-141-128-154-14-61-68-107-133-107-42 0-79 19-104 49-25-30-62-49-104-49-65 0-119 46-132 107-73 13-129 77-129 154 0 16 3 31 7 45-53 25-90 79-90 142 0 63 37 117 90 142-4 14-7 30-7 46 0 76 56 140 129 153z m236-60c-17 0-31 14-31 32 0 40-33 72-73 72-40 0-73-32-73-72 0-18-14-32-31-32-52 0-94-42-94-93 0-18 5-35 13-49 6-9 6-20 2-29-4-9-12-16-22-18-44-8-76-46-76-92 0-46 32-84 76-92 10-2 18-9 22-18 4-9 4-20-2-29-8-14-13-31-13-48 0-52 42-94 94-94 17 0 31-14 31-31 0-41 33-73 73-73 40 0 73 32 73 73 0 17 14 31 31 31 17 0 31-14 31-31 0-41 33-73 73-73 41 0 73 32 73 73 0 17 14 31 31 31 52 0 94 42 94 94 0 17-5 34-13 48-6 9-6 20-2 29 4 9 12 16 22 18 44 8 76 46 76 92 0 46-32 84-76 92-10 2-18 9-22 18-4 9-4 20 2 29 8 14 13 31 13 49 0 51-42 93-94 93-17 0-31 14-31 32 0 40-32 72-73 72-40 0-73-32-73-72 0-18-14-32-31-32z m-32-73l0-51 63 0 0 51c0 18 14 32 32 32 17 0 31-14 31-32l0-51c33-5 58-31 63-63l55 0c17 0 31-14 31-31 0-18-14-32-31-32l-55 0 0-61 55 0c17 0 31-14 31-31 0-18-14-32-31-32l-55 0c-5-32-31-57-63-61l0-54c0-17-14-31-31-31-17 0-31 14-31 31l0 53-64 0 0-53c0-17-14-31-31-31-17 0-31 14-31 31l0 54c-31 6-55 31-59 61l-55 0c-18 0-32 14-32 32 0 17 14 31 32 31l54 0 0 61-54 0c-18 0-32 14-32 32 0 17 14 31 32 31l55 0c4 31 28 56 59 62l0 52c0 18 14 32 31 32 17 0 31-14 31-32z m-60-124l0-166c0-6 5-10 11-10l165 0c6 0 11 4 11 10l0 166c0 6-5 11-11 11l-165 0c-6 0-11-5-11-11z" horiz-adv-x="1000" />

<glyph glyph-name="ai-brain-03" unicode="&#xe82f;" d="M396-98c-65 0-119 46-132 107-73 13-129 77-129 154 0 15 3 31 7 45-53 25-90 79-90 142 0 63 37 117 90 142-4 14-7 30-7 46 0 76 56 140 129 153 13 61 67 107 132 107 42 0 79-19 104-49 25 30 62 49 104 49 65 0 119-46 133-107 72-13 128-77 128-153 0-16-3-32-7-46 53-25 90-79 90-142 0-63-37-117-90-142 4-14 7-29 7-45 0-77-56-141-128-154-14-61-68-107-133-107-42 0-79 19-104 49-25-30-62-49-104-49z m135 761c0-18-14-32-31-32-17 0-31 14-31 32 0 40-33 72-73 72-40 0-73-32-73-72 0-18-14-32-31-32-52 0-94-42-94-93 0-18 5-35 13-49 6-9 6-20 2-29-4-9-12-16-22-18-44-8-76-46-76-92 0-46 32-84 76-92 10-2 18-9 22-18 4-9 4-20-2-29-8-14-13-31-13-48 0-52 42-94 94-94 17 0 31-14 31-31 0-41 33-73 73-73 40 0 73 32 73 73 0 17 14 31 31 31 17 0 31-14 31-31 0-41 33-73 73-73 41 0 73 32 73 73 0 8 3 16 9 22 6 6 14 9 22 9 52 0 94 42 94 94 0 17-5 34-13 48-6 9-6 20-2 29 4 9 12 16 22 18 44 8 76 46 76 92 0 46-32 84-76 92-10 2-18 9-22 18-4 9-4 20 2 29 8 14 13 31 13 49 0 51-42 93-94 93-17 0-31 14-31 32 0 40-32 72-73 72-40 0-73-32-73-72z m-114-136c26 0 49-16 57-41l77-230c5-17-4-34-20-40-17-5-34 4-40 20l-20 62-108 0-21-62c-5-16-23-25-39-20-17 6-26 23-20 40l77 230c8 25 31 41 57 41z m260-31l0-250c0-17-14-31-31-31-17 0-31 14-31 31l0 250c0 17 14 31 31 31 17 0 31-14 31-31z m-260-36l-33-100 66 0z" horiz-adv-x="1000" />

<glyph glyph-name="ai-brain-04" unicode="&#xe830;" d="M52 350c0 63 37 117 90 142-4 14-7 30-7 46 0 76 56 140 129 153 13 61 67 107 132 107 75 0 135-61 135-135l0-625c0-75-60-136-135-136-65 0-119 46-132 107-73 13-129 77-129 154 0 16 3 31 7 45-53 25-90 79-90 142z m271 313c0-24 11-45 29-59 14-10 17-30 6-44-10-13-30-16-43-6-24 18-42 44-50 73-39-11-67-47-67-89 0-18 5-35 13-49 6-9 6-20 2-29-4-9-12-16-22-18-44-8-76-46-76-92 0-39 23-72 57-87 18 21 41 38 68 47 16 6 34-3 40-19 5-16-3-34-20-40-20-7-37-22-49-40-8-14-13-31-13-48 0-52 42-94 94-94 17 0 31-14 31-31 0-41 33-73 73-73 40 0 73 32 73 73l0 625c0 40-33 72-73 72-40 0-73-32-73-72z m479 52c35 0 63-28 63-63 0-34-28-62-63-62-5 0-11 0-16 2l-56-56c-5-6-13-9-22-9l-83 0c-17 0-31 14-31 31 0 18 14 32 31 32l70 0 47 46c-2 5-2 11-2 16 0 35 28 63 62 63z m-208-573c0 17 14 31 31 31l83 0c9 0 17-3 22-9l56-56c5 2 11 2 16 2 35 0 63-28 63-62 0-35-28-63-63-63-34 0-62 28-62 63 0 6 0 11 2 16l-47 46-70 0c-17 0-31 14-31 32z m208 271c35 0 63-28 63-63 0-34-28-62-63-62-23 0-43 12-54 31l-123 0c-17 0-31 14-31 31 0 17 14 31 31 31l123 0c11 19 31 32 54 32z" horiz-adv-x="1000" />

<glyph glyph-name="ai-brain-05" unicode="&#xe831;" d="M656 506l63 0 0 52c0 18 14 32 31 32 17 0 31-14 31-32l0-54c14-2 29-7 41-19 13-12 18-27 20-41l54 0c17 0 31-14 31-31 0-18-14-32-31-32l-52 0 0-62 52 0c17 0 31-14 31-31 0-18-14-32-31-32l-54 0c-2-14-7-29-20-41-12-12-27-17-41-19l0-54c0-18-14-32-31-32-17 0-31 14-31 32l0 52-63 0 0-52c0-18-14-32-31-32-17 0-31 14-31 32l0 54c-14 2-29 7-41 19-13 12-17 27-20 41l-54 0c-17 0-31 14-31 32 0 17 14 31 31 31l52 0 0 62-52 0c-17 0-31 14-31 32 0 17 14 31 31 31l54 0c3 14 7 29 20 41 12 12 27 17 41 19l0 54c0 18 14 32 31 32 17 0 31-14 31-32z m-239 229c-41 0-73-32-73-72 0-24 11-45 29-59 14-10 17-30 6-44-10-13-30-16-44-6-23 18-41 44-49 73-39-11-67-47-67-89 0-18 5-35 13-49 6-9 6-20 2-29-4-9-12-16-23-18-43-8-76-46-76-92 0-39 24-72 58-87 18 21 41 38 67 47 17 6 35-3 40-19 6-16-2-34-19-40-20-7-38-22-49-40-8-14-13-31-13-48 0-52 42-94 94-94 17 0 31-14 31-31 0-41 32-73 73-73 40 0 73 32 73 73l0 62c0 17 14 31 31 31 17 0 31-14 31-31l0-62c0-75-60-136-135-136-65 0-119 46-133 107-72 13-128 77-128 154 0 16 3 31 7 45-53 25-90 79-90 142 0 63 37 117 90 142-4 14-7 30-7 46 0 76 56 140 128 153 14 61 68 107 133 107 75 0 135-61 135-135l0-63c0-17-14-31-31-31-17 0-31 14-31 31l0 63c0 40-33 72-73 72z m180-294l0 0c0 0 0-1 0-1-1-1-1-3-2-7-1-8-1-21-1-41l0-84c0-20 0-32 1-41 1-4 1-6 2-7 0 0 0 0 0-1l0 0 0 0c0 0 0 0 0 0 1 0 3-1 7-1 9-2 21-2 42-2l83 0c21 0 33 0 42 2 4 0 6 1 7 1 0 0 0 0 0 0l0 0 0 0c0 1 0 1 0 1 0 0 0 0 1 0 0 1 1 3 1 7 1 9 1 21 1 41l0 84c0 20 0 33-1 41 0 4-1 6-1 7-1 0-1 0-1 0 0 1 0 1 0 1l0 0 0 0c0 0 0 0 0 0 0 0 0 0 0 0-1 0-3 1-7 2-9 1-21 1-42 1l-83 0c-21 0-33 0-42-1-4-1-6-2-7-2l0 0z" horiz-adv-x="1000" />

<glyph glyph-name="ai-browser" unicode="&#xe832;" d="M482 798l0 0c91 0 163 0 219-8 57-7 102-23 138-59 36-36 52-81 60-139 7-56 7-127 7-219l0-2c0-22 0-43 0-63 0-17-14-31-31-31-17 0-31 14-31 32 0 19 0 40 0 62 0 26 0 50 0 73l-729 0c0-23 0-47 0-73 0-94 0-162 7-213 6-51 19-81 41-103 23-22 53-35 103-42 52-7 119-7 213-7 22 0 43 0 63 0 17 0 31-14 31-31 0-17-14-31-31-31-20 0-41 0-63 0l-2 0c-91 0-163 0-219 7-57 8-103 24-139 60-35 36-52 81-59 139-8 56-8 127-8 219l0 4c0 92 0 163 8 219 7 58 24 103 59 139 36 36 82 52 139 59 56 8 128 8 219 8l5 0z m-366-292l727 0c-1 30-3 55-6 78-7 50-20 80-42 103-22 22-52 35-103 42-51 6-119 6-213 6-94 0-161 0-213-6-50-7-80-20-103-42-22-23-35-53-41-103-3-23-5-48-6-78z m655-250c13 0 25-8 29-20l11-29c15-41 20-52 28-60 8-8 19-13 60-28l29-10c12-5 20-17 20-30 0-13-8-25-20-29l-29-11c-41-15-52-20-60-28-8-8-13-19-28-60l-11-29c-4-12-16-20-29-20-13 0-25 8-29 20l-11 29c-15 41-20 52-28 60-8 8-19 13-60 28l-29 11c-12 4-20 16-20 29 0 13 8 25 20 30l29 10c41 15 52 20 60 28 8 8 13 19 28 60l11 29c4 12 16 20 29 20z m-333 407l0 0c23 0 42-19 42-42 0-23-19-42-42-42l0 0c-23 0-42 19-42 42 0 23 19 42 42 42z m-209-42c0 23 19 42 42 42l0 0c23 0 42-19 42-42 0-23-19-42-42-42l0 0c-23 0-42 19-42 42z m542-483c-7-13-14-25-24-35-10-10-21-17-35-24 14-6 25-14 35-23 10-10 17-22 24-36 6 14 14 26 24 36 10 9 21 17 35 23-14 7-25 14-35 24-10 10-18 22-24 35z" horiz-adv-x="1000" />

<glyph glyph-name="ai-chat-01" unicode="&#xe833;" d="M408 774c60 4 124 4 185 0 189-12 341-167 353-358 2-36 2-74 0-109-12-192-164-346-353-359-61-4-125-4-185 0-25 2-50 8-72 17-8 3-16 6-22 8-4-2-8-5-14-10-37-27-77-40-127-40l-9 0c-30 1-55 2-70 26-14 25-2 49 16 82 14 27 28 63 14 88-42 63-66 127-70 188-2 35-2 73 0 109 12 191 164 346 354 358z m180-62c-58 4-119 4-176 0-158-10-285-139-296-300-2-33-2-68 0-100 4-50 24-103 61-160 23-41 19-91-12-149-3-6-6-12-8-17l-1 0 11 0c38-1 68 7 96 28l1 1c19 14 29 21 42 23 14 1 26-3 54-15 15-6 34-11 52-11 58-4 118-4 176 0 158 10 285 139 296 300 2 32 2 67 0 100-11 161-138 290-296 300z m-26-122c17 0 31-14 31-31l0-52c33-4 59-30 63-63l55 0c17 0 32-14 32-31 0-17-15-31-32-31l-54 0 0-62 54 0c17 0 32-14 32-31 0-17-15-31-32-31l-55 0c-4-32-30-57-62-62l0-54c0-17-14-31-31-31l0 0c-18 0-32 14-32 31l0 53-63 0 0-53c0-17-15-31-32-31-17 0-31 14-31 31l0 55c-30 5-55 30-59 61l-55 0c-17 0-31 14-31 31 0 17 14 31 31 31l54 0 0 62-54 0c-17 0-31 14-31 31 0 17 14 31 31 31l55 0c4 31 28 57 59 62l0 53c0 17 14 31 31 31 17 0 32-14 32-31l0-52 63 0 0 52c0 17 14 31 31 31z m22-145l-166 0c-5 0-10-5-10-11l0-166c0-6 5-10 10-10l166 0c6 0 10 4 10 10l0 166c0 6-4 11-10 11z" horiz-adv-x="1000" />

<glyph glyph-name="ai-chat-02" unicode="&#xe834;" d="M593 774c190-13 341-166 353-358 3-36 3-73 0-109-12-192-163-346-353-359-61-4-125-4-185 0-24 2-50 7-72 17-10 4-17 7-22 8-3-2-8-5-14-10-33-24-75-41-134-40l-2 0c-11 0-24 1-33 2-12 3-27 9-36 24-11 18-6 35-3 46 4 10 11 22 17 35l1 1c19 37 25 67 14 87-34 53-65 117-70 189-2 36-2 73 0 109 12 192 163 345 354 358 60 4 124 4 185 0z m-181-62c-159-11-285-139-296-300-2-33-2-68 0-101 4-57 29-111 61-159 1-1 1-2 2-2 27-51 7-108-14-148-3-6-6-12-8-16 3 0 6 0 10-1 45-1 73 12 96 28l0 1 0 0c8 5 14 10 20 14 4 3 13 8 23 9 11 2 22-2 27-4 7-2 16-6 26-10l0 0 1 0c15-7 34-11 52-12 58-4 118-4 176 0 159 10 285 138 296 300 2 33 2 68 0 101-11 161-137 289-296 300-58 4-118 4-176 0z m5-206c26 0 49-16 57-41l77-230c5-16-4-34-20-40-17-5-34 4-40 20l-20 62-108 0-21-62c-5-16-23-25-39-20-17 6-26 24-20 40l77 230c8 25 31 41 57 41z m260-31l0-250c0-17-14-31-31-31-17 0-31 14-31 31l0 250c0 17 14 31 31 31 17 0 31-14 31-31z m-260-36l-33-99 66 0z" horiz-adv-x="1000" />

<glyph glyph-name="ai-cloud-02" unicode="&#xe835;" d="M52 350c0 116 83 213 192 235 22 121 128 213 256 213 141 0 256-112 260-252 106-15 188-107 188-217 0-95-61-176-146-206-16-6-34 3-40 19-5 16 3 34 19 40 61 21 104 79 104 147 0 78-56 142-130 154-9-41-28-79-54-111-11-13-31-15-44-4-13 11-15 30-4 44 24 30 40 67 44 108 1 5 1 11 1 18 0 109-89 197-198 197-91 0-168-62-191-146 47-3 91-20 127-47 13-11 16-30 6-44-11-14-30-17-44-6-30 22-66 35-106 35-6 0-12 0-17-1-90-8-160-84-160-176 0-73 43-135 106-162 16-7 23-26 16-41-7-16-25-23-41-17-85 37-144 122-144 220z m281-177c18 0 32-14 32-31l0-84c0-8-4-16-10-22l-55-55c1-5 2-11 2-16 0-35-28-63-62-63-35 0-63 28-63 63 0 34 28 62 63 62 5 0 11-1 16-2l46 46 0 71c0 17 14 31 31 31z m490-208c0-35-28-63-63-63-34 0-62 28-62 63 0 5 1 11 2 16l-55 55c-6 6-10 14-10 22l0 84c0 17 14 31 32 31 17 0 31-14 31-31l0-71 46-46c5 1 11 2 16 2 35 0 63-28 63-62z m-260 0c0-35-28-63-63-63-34 0-62 28-62 63 0 23 12 43 31 54l0 123c0 17 14 31 31 31 17 0 31-14 31-31l0-123c19-11 32-31 32-54z" horiz-adv-x="1000" />

<glyph glyph-name="ai-cloud" unicode="&#xe836;" d="M52 308c0 116 83 213 192 235 22 121 128 213 256 213 141 0 256-112 260-252 106-15 188-106 188-216 0-85-48-159-118-195-16-8-35-2-43 14-7 15-1 34 14 42 50 26 84 78 84 139 0 77-56 142-130 154-9-42-28-80-54-112-11-13-31-15-44-4-13 11-15 31-4 44 24 30 40 67 44 108 1 6 1 12 1 18 0 109-89 198-198 198-91 0-168-62-191-147 47-3 91-20 127-47 13-10 16-30 6-44-11-14-30-16-44-6-30 22-66 35-106 35-6 0-12 0-17 0-90-9-160-85-160-177 0-70 40-130 99-159 16-8 22-26 15-42-8-15-26-22-42-14-80 39-135 121-135 215z m477-30l11-29c15-41 20-52 28-60 8-8 19-13 60-28l29-11c12-4 20-16 20-29 0-13-8-25-20-29l-29-11c-41-15-52-20-60-28-8-8-13-19-28-60l-11-29c-4-12-16-20-29-20-13 0-25 8-29 20l-11 29c-15 41-20 52-28 60-8 8-19 13-60 28l-29 11c-12 4-20 16-20 29 0 13 8 25 20 29l29 11c41 15 52 20 60 28 8 8 13 19 28 60l11 29c4 12 16 20 29 20 13 0 25-8 29-20z m-53-181c10-10 18-21 24-35 7 14 14 25 24 35 10 10 21 17 35 24-14 6-25 14-35 24-10 10-17 21-24 35-6-14-14-25-24-35-10-10-21-18-35-24 14-7 25-14 35-24z" horiz-adv-x="1000" />

<glyph glyph-name="ai-computer" unicode="&#xe837;" d="M417 798c18 0 32-14 32-31 0-18-14-32-32-32-79 0-136 0-179-5-42-6-66-17-84-34-17-18-28-42-34-84-5-43-5-99-5-179 0-79 0-135 5-178 6-42 17-66 34-84 18-18 42-28 84-34 43-6 100-6 179-6l167 0c80 0 136 0 179 6 42 6 67 16 84 34 25 24 35 61 39 139 0 17 15 30 32 30 17-1 31-16 30-33-3-78-14-137-57-180-31-31-70-45-119-52-48-6-109-6-185-6l-56 0 0-104 136 0c17 0 31-14 31-32 0-17-14-31-31-31l-334 0c-17 0-31 14-31 31 0 18 14 32 31 32l136 0 0 104-54 0c-77 0-137 0-185 6-49 7-89 21-120 52-31 31-45 70-51 119-7 48-7 108-7 185l0 5c0 76 0 137 7 184 6 49 20 89 51 120 31 31 71 45 120 52 48 6 108 6 185 6z m260-83l63 0 0 52c0 17 14 31 31 31 17 0 31-14 31-31l0-54c14-3 29-7 41-20 13-12 17-27 20-41l54 0c17 0 31-14 31-31 0-17-14-31-31-31l-52 0 0-63 52 0c17 0 31-14 31-31 0-17-14-31-31-31l-54 0c-3-15-7-29-20-41-12-13-27-18-41-20l0-54c0-17-14-31-31-31-17 0-31 14-31 31l0 52-63 0 0-52c0-17-14-31-31-31-17 0-31 14-31 31l0 54c-15 2-29 7-41 20-13 12-18 26-20 41l-54 0c-17 0-31 14-31 31 0 17 14 31 31 31l52 0 0 63-52 0c-17 0-31 14-31 31 0 17 14 31 31 31l54 0c2 14 7 29 20 41 12 13 26 17 41 20l0 54c0 17 14 31 31 31 17 0 31-14 31-31z m-59-66l0 0c0 0 0 0-1 0 0-1-1-3-1-7-1-9-1-21-1-42l0-83c0-21 0-33 1-42 0-4 1-6 1-7 1 0 1 0 1 0l0 0 0 0c0 0 0 0 0-1 1 0 3-1 7-1 9-1 21-1 42-1l83 0c21 0 33 0 42 1 4 0 6 1 7 1 0 1 0 1 0 1l0 0 0 0c0 0 0 0 0 0 1 1 1 3 2 7 1 9 1 21 1 42l0 83c0 21 0 33-1 42-1 4-1 6-2 7 0 0 0 0 0 0l0 0 0 0c0 0 0 0 0 0-1 1-3 1-7 2-9 1-21 1-42 1l-83 0c-21 0-33 0-42-1-4-1-6-1-7-2 0 0 0 0 0 0z m-160-393l84 0c17 0 31-14 31-31 0-17-14-31-31-31l-84 0c-17 0-31 14-31 31 0 17 14 31 31 31z" horiz-adv-x="1000" />

<glyph glyph-name="ai-folder-01" unicode="&#xe838;" d="M289 735c-38 0-65 0-86-1-20-2-32-6-40-10-15-9-28-21-36-37-5-8-9-20-10-40-2-21-2-48-2-86l0-128c0-99 0-170 7-224 7-53 21-85 45-109 12-12 12-32 0-44-13-13-32-13-45 0-37 37-54 84-62 145-8 58-8 134-8 230l0 131c0 37 0 66 2 90 2 25 7 46 18 66 14 25 35 46 60 60 20 11 41 16 66 18 24 2 53 2 90 2l1 0 6 0c43 0 73 0 99-10 58-22 84-73 104-113 1-3 2-6 4-8l17-36 181 0c42 0 76 0 104-2 28-3 53-9 75-24 17-11 31-26 43-43 14-22 20-46 23-75 3-27 3-62 3-104l0-3c0-72 0-128-5-173-4-46-14-83-35-115-9-13-19-25-30-36-12-13-32-13-44 0-13 12-13 32 0 44 8 8 15 17 22 27 13 20 21 46 25 86 4 42 4 95 4 168 0 45 0 76-2 100-2 23-7 36-13 46-7 10-16 19-26 26-10 7-23 11-46 13-24 3-55 3-100 3l-197 0c-1 0-1 0-2 0l-207 0c-18 0-32 14-32 31 0 17 14 31 32 31l157 0-4 9c-23 46-38 77-73 90-14 5-32 5-83 5z m76-552l0-125c0-8-4-16-10-22l-55-55c1-5 2-11 2-16 0-35-28-63-62-63-35 0-63 28-63 63 0 34 28 62 63 62 5 0 11-1 16-2l46 46 0 112c0 18 14 32 31 32 18 0 32-14 32-32z m458-218c0-35-28-63-63-63-34 0-62 28-62 63 0 5 1 11 2 16l-55 55c-6 6-10 14-10 22l0 125c0 18 14 32 32 32 17 0 31-14 31-32l0-112 46-46c5 1 11 2 16 2 35 0 63-28 63-62z m-260 0c0-35-28-63-63-63-34 0-62 28-62 63 0 23 12 43 31 54l0 164c0 18 14 32 31 32 17 0 31-14 31-32l0-164c19-11 32-31 32-54z" horiz-adv-x="1000" />

<glyph glyph-name="ai-folder-02" unicode="&#xe839;" d="M122 56c-70 70-70 172-70 377l0 128c0 80 0 121 20 157 14 25 35 46 60 60 36 20 76 20 157 20l0 0c52 0 79 0 105-10 57-22 82-71 104-115l21-42 179 0c93 0 141 0 180-26 18-12 33-27 44-44 26-39 26-86 26-180l0 0c0-153 0-229-40-289-9-13-19-25-30-36-12-13-32-13-44 0-12 12-13 32 0 44 8 8 16 17 22 26 30 45 30 115 30 255l0 0c0 82 0 122-16 146-7 10-15 19-26 26-23 16-64 16-146 16l-405 0c-18 0-32 14-32 32 0 17 14 31 32 31l157 0-7 14c-19 38-35 71-70 84-15 6-38 6-83 6l0 0c-68 0-105 0-126-12-16-8-28-21-36-36-13-21-13-57-13-127l0-127c0-188 0-282 52-334 12-12 12-32 0-44-6-6-14-9-22-9l-1-1c-8 0-16 3-22 10z m409-123l0 54-64 0 0-54c0-17-14-31-31-31-18 0-32 14-32 31l0 55c-31 5-54 30-59 61l-55 0c-17 0-31 14-31 31 0 18 14 32 31 32l54 0 0 61-54 0c-17 0-31 14-31 31 0 17 14 31 31 31l55 0c4 32 28 57 59 63l0 52c0 17 14 31 32 31 17 0 31-14 31-31l0-51 63 0 0 51c0 17 14 31 31 31 17 0 31-14 31-31l0-52c33-4 59-30 64-63l54 0c17 0 31-14 31-31 0-17-14-31-31-31l-54 0 0-61 54 0c17 0 31-14 31-32 0-17-14-31-31-31l-55 0c-4-32-30-57-62-62l0-54c0-17-14-31-31-31-17 0-31 14-31 31z m-124 127c0-6 4-11 10-11l166 0c6 0 10 5 10 11l0 166c0 6-4 10-10 10l-166 0c-6 0-10-4-10-10z" horiz-adv-x="1000" />

<glyph glyph-name="ai-game" unicode="&#xe83a;" d="M255 507c-33-6-53-15-69-29-17-16-29-39-37-77-9-40-14-92-21-165l-13-149c-4-55 39-102 93-102l31 0c39 0 73 24 87 60l32 80 0 0c4 12 9 23 14 31 5 10 12 20 23 28 11 7 22 10 33 11 10 1 22 1 34 1l76 0c12 0 24 0 34-1 11-1 23-4 34-11 11-8 17-18 23-28 4-8 9-19 13-31l32-80c14-36 49-60 87-60l31 0c54 0 97 47 93 102l-13 148c-7 74-12 126-20 166-9 38-21 61-38 77-16 14-36 23-69 29-17 2-28 19-26 36 3 17 19 28 36 25 40-6 74-19 102-44 30-29 46-65 56-110 9-44 14-100 21-171l14-150 0-1c6-91-65-169-156-169l-31 0c-64 0-122 39-145 99l-31 79c-6 13-9 21-12 26-1 3-2 4-2 5-1 0-1 0-1 0l0 0 0 0 0 0c0 0 0 0 0 0-1 0-2 1-5 1-6 1-14 1-29 1l-72 0c-15 0-23 0-29-1-3 0-4-1-5-1 0 0 0 0 0 0l0 0 0 0c0 0 0 0-1 0 0-1-1-2-2-5-3-5-6-13-12-26l-30-79c-24-60-81-99-146-99l-31 0c-91 0-162 78-155 169l0 1 13 150c7 71 12 128 22 171 10 45 25 82 56 110 28 25 61 38 101 44 17 3 33-8 36-25 3-17-9-34-26-36z m274 250l11-29c15-41 20-52 28-60 8-8 19-13 60-28l29-11c12-4 20-16 20-29 0-13-8-25-20-29l-29-11c-41-15-52-20-60-28-8-8-13-19-28-60l-11-29c-4-12-16-20-29-20-13 0-25 8-29 20l-11 29c-15 41-20 52-28 60-8 8-19 13-60 28l-29 11c-12 4-20 16-20 29 0 13 8 25 20 29l29 11c41 15 52 20 60 28 8 8 13 19 28 60l11 29c4 12 16 20 29 20 13 0 25-8 29-20z m179-386l1 0c23 0 41-19 41-42 0-23-18-41-41-41l-1 0c-23 0-41 18-41 41 0 23 18 42 41 42z m-458-42c0 23 19 42 42 42l0 0c23 0 42-19 42-42 0-23-19-41-42-41l0 0c-23 0-42 18-42 41z m226 247c10-10 18-21 24-35 6 14 14 25 24 35 10 10 21 18 35 24-14 7-25 14-35 24-10 10-18 21-24 35-6-14-14-25-24-35-10-10-21-17-35-24 14-6 25-14 35-24z" horiz-adv-x="1000" />

<glyph glyph-name="ai-generative" unicode="&#xe83b;" d="M417 631c17 0 31-14 31-31 0-17-14-31-31-31-80 0-136 0-179-6-42-6-66-16-84-34-17-17-28-42-34-84-5-42-5-99-5-178 0-80 0-136 5-179 6-42 17-66 34-84 18-17 42-28 84-34 43-5 99-5 179-5l166 0c80 0 136 0 179 5 42 6 66 17 84 34 17 18 28 42 34 84 5 43 5 99 5 179 0 49 0 89-1 123-1 18 13 32 30 33 17 1 32-13 32-30 2-36 2-77 2-126l0-3c0-76 0-137-6-184-7-49-21-89-52-120-31-31-71-45-120-52-47-6-108-6-184-6l-172 0c-76 0-137 0-184 6-49 7-89 21-120 52-31 31-45 71-51 120-7 47-7 108-7 184l0 5c0 77 0 137 7 185 6 49 20 88 51 119 31 32 71 45 120 52 47 6 108 6 184 6z m362 147l13-34c17-46 23-60 32-70 10-9 24-15 70-32l34-13c12-4 20-16 20-29 0-13-8-25-20-29l-34-13c-46-17-60-22-70-32-9-10-15-24-32-70l-13-33c-4-13-16-21-29-21-13 0-25 8-29 21l-13 33c-17 46-22 60-32 70-10 10-24 15-70 32l-33 13c-13 4-21 16-21 29 0 13 8 25 21 29l33 13c46 17 60 23 70 32 10 10 15 24 32 70l13 34c4 12 16 20 29 20 13 0 25-8 29-20z m-59-208c13-13 22-29 30-48 8 19 17 35 30 48 13 13 29 22 48 30-19 8-35 17-48 30-13 13-22 29-30 48-8-19-17-35-30-48-13-13-29-22-48-30 19-8 35-17 48-30z" horiz-adv-x="1000" />

<glyph glyph-name="ai-image" unicode="&#xe83c;" d="M479 756c22 0 43 0 63 0 17 0 31-14 31-31 0-17-14-31-31-31-20 0-41 0-63 0-94 0-161 0-213-7-50-7-80-20-103-42-22-22-35-52-41-103-7-51-7-119-7-213 0-94 0-161 7-213 6-50 19-80 41-103 6-5 13-11 20-15 6 6 11 13 17 20 80 97 169 204 269 272 59 40 124 67 196 70 57 3 117-10 179-41l0 10c0 22 0 43 0 63 0 17 14 31 31 31 17 0 31-14 31-31 0-20 0-41 0-63l0-2c0-91 0-163-7-219-8-57-24-103-60-139-36-36-81-52-138-59-56-8-128-8-219-8l-5 0c-91 0-163 0-219 8-57 7-103 23-139 59-35 36-52 82-59 139-8 56-8 128-8 219l0 5c0 91 0 163 8 219 7 57 24 102 59 138 36 36 82 52 139 60 56 7 128 7 219 7z m-234-781c7-1 14-3 21-4 52-6 119-6 213-6 94 0 162 0 213 6 51 7 81 20 103 42 22 23 35 53 42 103 5 35 6 78 7 132-65 38-123 52-176 50-57-3-111-25-164-60-92-62-174-161-255-259-1-1-2-3-4-4z m526 823c13 0 25-8 29-20l11-29c15-41 20-52 28-60 8-8 19-13 60-28l29-11c12-4 20-16 20-29 0-13-8-25-20-29l-29-11c-41-15-52-20-60-28-8-8-13-19-28-60l-11-29c-4-12-16-20-29-20-13 0-25 8-29 20l-11 29c-15 41-20 52-28 60-8 8-19 13-60 28l-29 11c-12 4-20 16-20 29 0 13 8 25 20 29l29 11c41 15 52 20 60 28 8 8 13 19 28 60l11 29c4 12 16 20 29 20z m-479-188c52 0 93-41 93-93 0-52-41-94-93-94-52 0-94 42-94 94 0 52 42 93 94 93z m479 70c-7-14-14-25-24-35-10-10-21-18-35-24 14-7 25-14 35-24 10-10 17-21 24-35 6 14 14 25 24 35 10 10 21 17 35 24-14 6-25 14-35 24-10 10-18 21-24 35z m-511-163c0-18 14-32 32-32 17 0 31 14 31 32 0 17-14 31-31 31-18 0-32-14-32-31z" horiz-adv-x="1000" />

<glyph glyph-name="ai-idea" unicode="&#xe83d;" d="M479 735c-155 0-281-127-281-286 0-96 44-170 116-219 8-6 17-11 23-16 6-5 13-11 18-19 5-8 8-15 9-23 2-7 3-15 5-23l2-16c3-17 5-27 7-35 1-3 2-5 2-5l1-1c1 0 3-1 6-1 8-1 18-1 36-1l109 0c17 0 28 0 35 1 3 0 7 2 7 2 0 0 1 2 2 5 2 8 4 18 7 35l3 16c1 8 2 17 4 23 2 8 4 16 9 23 5 8 12 14 19 19 6 5 13 10 22 16l1 0c73 50 119 123 119 219 0 17 14 31 32 31 17 0 31-14 31-31 0-119-59-211-147-270-10-7-16-11-20-14-3-2-4-3-4-4 0 0-1-1-1-3-1-5-2-10-4-20l-3-17c-2-15-5-29-8-41-4-12-10-25-22-36-6-5-13-9-20-11l0-18c0-18 0-35-2-48-2-15-7-31-20-44-12-12-28-17-43-19-13-2-30-2-48-2l-4 0c-18 0-34 0-48 2-14 2-30 7-43 19-13 13-18 29-20 44-1 13-1 30-1 48l0 2 0 15c-9 2-17 6-25 12-12 11-18 24-22 36-3 12-5 26-8 41l-3 17c-1 9-2 15-3 20-1 2-1 3-1 3-1 1-2 2-4 4-5 3-11 7-21 14-87 60-143 152-143 270 0 192 154 349 344 349 24 0 47-2 69-7 17-4 28-20 24-37-3-17-20-28-37-24-18 4-37 5-56 5z m209 63c13 0 24-8 29-20l11-29c15-41 20-52 27-60 8-8 19-13 60-28l29-11c13-4 21-16 21-29 0-13-8-25-21-29l-29-11c-41-15-52-20-60-28-7-8-12-19-27-60l-11-29c-5-12-16-20-29-20-14 0-25 8-30 20l-10 29c-16 41-20 52-28 60-8 8-19 13-60 28l-29 11c-12 4-21 16-21 29 0 13 9 25 21 29l29 11c41 15 52 20 60 28 8 8 12 19 28 60l10 29c5 12 16 20 30 20z m-261-771l0-10c0-21 0-33 1-42 1-4 2-6 2-7 0 0 0 0 0 0 2-1 4-2 8-2 8-1 21-1 41-1 21 0 33 0 42 1 3 0 6 1 7 2 0 0 0 0 1 0 0 1 1 3 1 7 1 9 1 21 1 42l0 10z m261 653c-7-14-14-25-24-35-10-10-22-18-35-24 13-7 25-14 35-24 10-10 17-21 24-35 6 14 13 25 23 35 10 10 22 17 36 24-14 6-26 14-36 24-10 10-17 21-23 35z" horiz-adv-x="1000" />

<glyph glyph-name="ai-innovation-01" unicode="&#xe83e;" d="M635 673l63 0 0 52c0 17 14 31 31 31 17 0 31-14 31-31l0-54c15-2 29-7 42-19 12-13 17-27 19-42l54 0c17 0 31-14 31-31 0-17-14-31-31-31l-52 0 0-63 52 0c17 0 31-14 31-31 0-17-14-31-31-31l-54 0c-2-14-7-29-19-41-13-12-27-17-42-19l0-55c0-17-14-31-31-31-17 0-31 14-31 31l0 52-63 0 0-52c0-17-14-31-31-31-17 0-31 14-31 31l0 55c-14 2-29 7-41 19-12 12-17 27-19 41l-55 0c-17 0-31 14-31 31 0 17 14 31 31 31l52 0 0 63-52 0c-17 0-31 14-31 31 0 17 14 31 31 31l55 0c2 15 7 29 19 42 12 12 27 17 41 19l0 54c0 17 14 31 31 31 17 0 31-14 31-31z m-337-458l321 0c5 0 10 0 15-1 5 0 11-1 18-3 20-8 34-28 36-50 0-7-2-13-3-18-1-4-3-9-4-15l-1 0-1-3c-6-19-10-33-18-45-12-19-30-34-50-43l-2-12-1-4c-5-25-9-45-18-61-14-25-37-43-64-52-18-6-38-6-63-6l0 0-5 0-4 0 0 0c-26 0-46 0-63 6-27 9-50 27-64 52-9 16-13 36-18 61l-1 4-2 12c-21 9-38 24-50 43-8 12-13 26-19 45l-1 3 0 0c-2 6-3 11-4 15-2 5-3 11-3 18 1 22 15 42 36 50 7 2 13 3 18 3 4 1 10 1 15 1z m160 520c-167 0-302-134-302-298 0-57 16-109 43-154 9-15 5-34-10-43-15-9-34-4-43 10-33 55-52 119-52 187 0 200 163 361 364 361 18 0 32-14 32-31 0-18-14-32-32-32z m118-128l0 0c0 0 0 0 0 0-1-1-1-3-2-7-1-9-1-21-1-42l0-83c0-20 0-33 1-41 1-5 1-7 2-7 0-1 0-1 0-1l0 0 0 0 0 0 1 0c0-1 2-1 7-2 8-1 21-1 41-1l83 0c21 0 33 0 42 1 4 1 6 1 7 2 0 0 0 0 0 0l0 0 0 0c1 0 1 0 1 1 0 0 1 2 1 7 1 8 1 21 1 41l0 83c0 21 0 33-1 42 0 4-1 6-1 7 0 0 0 0-1 0l0 0 0 0c0 1 0 1 0 1-1 0-3 1-7 1-9 1-21 1-42 1l-83 0c-20 0-33 0-41-1-5 0-7-1-7-1l-1 0z m-282-455l2-5c7-22 10-29 12-33 8-12 19-20 32-23 5-1 11-1 36-1l165 0c24 0 31 0 36 1 13 3 24 11 31 23 3 4 6 11 13 33l2 5-5 0-319 0z m78-125c4-23 6-31 9-36 7-11 17-20 29-24 7-2 16-2 48-2 33 0 42 0 48 2 13 4 23 13 29 24 3 5 5 13 10 36z" horiz-adv-x="1000" />

<glyph glyph-name="ai-innovation-02" unicode="&#xe83f;" d="M693 211c22-9 35-28 36-50 1-8-1-16-5-26l-2-7c-8-24-12-36-19-48-12-19-30-34-51-43l-2-12 0-1c-7-32-10-49-19-64-13-25-36-43-63-52-18-6-35-6-68-6-32 0-50 0-67 6-28 9-50 28-64 52-9 15-12 32-18 60l-1 3-2 13c-21 9-39 25-51 44-7 11-11 23-18 44l-1 2 0 2c-5 14-8 22-7 33 1 22 14 41 35 49 9 4 16 5 27 5l327 0c15 0 24 0 33-4z m77 29c-15 9-20 28-11 43 29 46 43 99 43 154 0 164-135 298-302 298-167 0-302-134-302-298 0-55 15-108 43-154 9-15 4-34-11-43-14-9-33-4-42 10-35 56-53 121-53 187 0 199 164 361 365 361 201 0 365-162 365-361 0-66-18-131-52-187-6-9-17-15-27-15-6 0-11 2-16 5z m-287 100l-13 41-94 0-13-41c-5-16-23-25-39-20-16 6-26 23-20 40l61 188c8 25 31 42 58 42 28 0 51-17 59-42l61-188c5-17-4-35-20-40 0 0-1 0-1 0-3-1-6-1-9-1l0 0c-13 0-25 8-30 21z m182-188l-330 0 1-1 0 0c0-1 1-2 1-4l0-1c2-5 3-9 5-12 3-10 5-16 8-20 7-11 18-19 31-23 7-1 17-1 36-1l166 0c19 0 30 0 36 1 13 4 24 12 31 23 3 5 6 13 11 27l2 5c0 1 0 2 0 2l1 2z m-71 198l0 208c0 17 14 32 31 32 17 0 31-15 31-32l0-208c0-17-14-31-31-31-17 0-31 14-31 31z m-7-322l-4 0 0-1-170 0c4-19 7-30 10-36 7-11 17-20 30-24 7-2 21-2 47-2l9 0c21 0 32 0 39 2 12 4 23 13 29 24 3 6 6 18 10 37z m-137 416l-28 85-27-85z" horiz-adv-x="1000" />

<glyph glyph-name="ai-lock" unicode="&#xe840;" d="M281 498l0 81c0 121 98 219 219 219 121 0 219-98 219-219l0-81c70-17 124-77 134-150 6-46 12-94 12-144 0-49-6-97-12-143-11-84-81-151-166-155-60-3-120-4-187-4-66 0-127 1-186 4-86 4-156 71-167 155-6 46-12 94-12 143 0 50 6 98 12 144 10 73 64 133 134 150z m219-54c-66 0-125-2-184-4-54-3-100-45-107-101-6-45-11-89-11-135 0-45 5-90 11-135 7-55 53-98 107-100 59-3 118-4 184-4 66 0 125 1 184 4 54 2 100 45 107 100 6 45 11 90 11 135 0 46-5 90-11 135-7 56-53 98-107 101-59 2-118 4-184 4z m-156 135l0-76c50 2 101 3 156 3 55 0 106-1 156-3l0 76c0 87-70 156-156 156-86 0-156-69-156-156z m169-510c-13 0-26 8-30 21l-13 41-94 0-13-41c-6-16-23-25-39-20-17 6-26 23-20 40l61 188c7 25 31 42 58 42 27 0 51-17 59-42l61-188c5-17-4-35-20-40l-1 0c-3-1-6-1-9-1z m112 0c-17 0-31 14-31 31l0 208c0 17 14 32 31 32 17 0 31-15 31-32l0-208c0-17-14-31-31-31z m-230 125l55 0-28 85z" horiz-adv-x="1000" />

<glyph glyph-name="align-left" unicode="&#xe841;" d="M436 298l295 0c18 0 34 0 47-1 13-1 27-4 40-12 27-15 39-40 43-63 4-17 4-37 4-52l0 0c0-3 0-5 0-7 0-3 0-5 0-8l0 0c0-15 0-34-4-52-4-23-16-48-43-63-13-8-27-10-40-12-13-1-29-1-47-1l-295 0c-18 0-34 0-47 1-14 2-27 4-40 12-27 15-39 40-44 63-3 18-3 37-3 52 0 3 0 5 0 8 0 2 0 4 0 7 0 15 0 35 3 52 5 23 17 48 44 63 13 8 26 11 40 12 13 1 29 1 47 1z m0 375l45 0c18 0 34 0 47-1 13-1 27-4 40-12 27-15 39-40 43-63 4-17 4-37 4-52 0-3 0-5 0-7 0-3 0-5 0-8 0-15 0-34-4-52-4-23-16-48-43-63-13-8-27-10-40-12-13-1-29-1-47-1l-45 0c-18 0-34 0-47 1-14 2-27 4-40 12-27 15-39 40-44 63-3 18-3 37-3 52 0 3 0 5 0 8 0 2 0 4 0 7 0 15 0 35 3 52 5 23 17 48 44 63 13 8 26 11 40 12 13 1 29 1 47 1z m-41-438c-10-1-13-3-15-4-7-4-11-10-13-21-3-11-3-22-2-37l0 0c0-4 0-7 0-10 0-4 0-7 0-11l0 0c-1-14-1-26 2-37 2-11 6-17 13-21 2-1 5-3 15-3 10-1 22-1 43-1l291 0c20 0 33 0 43 1 9 0 13 2 14 3 8 4 12 10 14 21 2 11 2 23 2 37l0 0c0 4 0 7 0 11 0 3 0 6 0 10l0 0c0 15 0 26-2 37-2 11-6 17-14 21-1 1-5 3-14 4-10 0-23 0-43 0l-291 0c-21 0-33 0-43 0z m-260 532c0 17 14 31 32 31 17 0 31-14 31-31l0-834c0-17-14-31-31-31-18 0-32 14-32 31z m260-157c-10-1-13-3-15-4-7-4-11-10-13-21-3-11-3-22-2-37l0 0c0-4 0-7 0-10 0-4 0-7 0-11l0 0c-1-14-1-26 2-37 2-11 6-17 13-21 2-1 5-3 15-3 10-1 22-1 43-1l41 0c20 0 33 0 43 1 9 0 13 2 14 3 8 4 12 10 14 21 2 11 2 23 2 37l0 0c0 4 0 7 0 11 0 3 0 6 0 10l0 0c0 15 0 26-2 37-2 11-6 17-14 21-1 1-5 3-14 4-10 0-23 0-43 0l-41 0c-21 0-33 0-43 0z" horiz-adv-x="1000" />

<glyph glyph-name="align-horizontal-center" unicode="&#xe842;" d="M531 767l0-94 33 0c18 0 34 0 47-1 14-1 27-4 40-12 27-15 39-40 44-63 3-17 3-37 3-52l0 0c0-3 0-5 0-7 0-3 0-5 0-8l0 0c0-15 0-34-3-52-5-23-17-48-44-63-13-8-26-10-40-12-13-1-29-1-47-1l-33 0 0-104 200 0c18 0 34 0 47-1 13-1 27-4 40-12 27-15 39-40 43-63 4-17 4-37 4-52 0-3 0-5 0-7 0-3 0-5 0-8 0-15 0-34-4-52-4-23-16-48-43-63-13-8-27-10-40-12-13-1-29-1-47-1l-200 0 0-94c0-17-14-31-31-31-17 0-31 14-31 31l0 94-199 0c-19 0-35 0-48 1-13 2-27 4-40 12-27 15-39 40-43 63-4 18-4 37-4 52 0 3 0 5 0 8 0 2 0 4 0 7 0 15 0 35 4 52 4 23 16 48 43 63 13 8 27 11 40 12 13 1 29 1 48 1l199 0 0 104-33 0c-18 0-34 0-47 1-14 2-27 4-40 12-27 15-39 40-44 63-3 18-3 37-3 52 0 3 0 5 0 8 0 2 0 4 0 7 0 15 0 35 3 52 5 23 17 48 44 63 13 8 26 11 40 12 13 1 29 1 47 1l33 0 0 94c0 17 14 31 31 31 17 0 31-14 31-31z m198-677c20 0 33 0 43 1 9 0 13 2 14 3 8 4 12 10 14 21 2 11 2 23 2 37l0 0c0 4 0 7 0 11 0 3 0 6 0 10l0 0c0 15 0 26-2 37-2 11-6 17-14 21-1 1-5 3-14 4-10 0-23 0-43 0l-458 0c-20 0-33 0-43 0-9-1-13-3-14-4-8-4-12-10-14-21-2-11-2-22-2-37l0 0c0-4 0-7 0-10 0-4 0-7 0-11 0-14 0-26 2-37 2-11 6-17 14-21 1-1 5-3 14-3 10-1 23-1 43-1l458 0z m-229 375l63 0c20 0 33 0 42 1 10 0 13 2 15 3 7 4 11 10 13 21 3 11 3 23 2 37l0 0c0 4 0 7 0 11 0 3 0 6 0 10l0 0c1 15 1 26-2 37-2 11-6 17-13 21-2 1-5 3-15 4-9 0-22 0-42 0l-125 0c-21 0-33 0-43 0-10-1-13-3-15-4-7-4-11-10-13-21-3-11-3-22-2-37l0 0c0-4 0-7 0-10 0-4 0-7 0-11l0 0c-1-14-1-26 2-37 2-11 6-17 13-21 2-1 5-3 15-3 10-1 22-1 43-1l62 0z" horiz-adv-x="1000" />

<glyph glyph-name="ai-laptop" unicode="&#xe843;" d="M828 257c12 0 23-6 28-16l23-43c57-106 84-179 52-238-32-58-103-58-231-58l-403 0c-129 0-199 0-231 58-32 59-5 132 52 238l17 34 0 328c0 84 0 131 33 165 24 23 53 29 78 31l211 0c17 0 31-13 31-31 0-17-14-31-31-31l-207 0c-23-3-32-8-37-14-15-14-15-47-15-120l0-303z m-642-63l-13-25 0-1c-53-99-67-149-52-178 14-25 75-25 177-25l402 0c101 0 163 0 176 25 16 29 2 79-52 178l-13 26z m552 156l0 53-64 0 0-53c0-17-14-31-31-31-17 0-31 14-31 31l0 55c-31 5-54 30-59 61l-55 0c-17 0-31 14-31 31 0 17 14 31 31 31l54 0 0 61-54 0c-17 0-31 14-31 32 0 17 14 31 31 31l55 0c4 31 28 56 59 62l0 52c0 17 14 32 31 32 17 0 31-15 31-32l0-51 63 0 0 51c0 17 14 32 31 32 17 0 31-15 31-32l0-51c33-4 59-30 63-63l54 0c17 0 32-14 32-31 0-18-15-32-32-32l-53 0 0-61 53 0c17 0 32-14 32-31 0-17-15-31-32-31l-54 0c-5-32-30-58-62-62l0-54c0-17-14-32-32-32l1 1c-17 0-31 14-31 31z m-123 126c0-5 5-10 11-10l165 0c5 0 10 5 10 10l0 167c0 5-5 10-10 10l-165 0c-6 0-11-5-11-10z" horiz-adv-x="1000" />

<glyph glyph-name="align-box-middle-left" unicode="&#xe844;" d="M502 798c76 0 136 0 184-5 49-5 88-16 122-41 20-15 38-32 53-53 24-33 35-73 40-121 5-48 5-108 5-184l0-87c0-77 0-137-5-185-5-48-16-87-40-121-15-21-33-38-53-53-34-25-73-36-122-41-48-5-108-5-184-5l-4 0c-76 0-136 0-184 5-48 5-88 16-121 41-21 15-39 32-53 53-25 34-36 73-41 121-5 48-5 108-5 185l0 87c0 76 0 136 5 184 5 48 16 88 41 121 14 21 32 38 53 53 33 25 73 36 121 41 48 5 108 5 184 5z m-273-96c-15-11-28-24-39-40-15-21-24-48-29-91-5-44-5-100-5-179l0-84c0-78 0-135 5-179 5-43 14-70 29-91 11-15 24-29 39-40 21-15 49-24 92-29 44-4 100-4 179-4 79 0 135 0 179 4 44 5 71 14 92 29 15 11 28 25 39 40 15 21 24 48 29 91 5 44 5 101 5 179l0 84c0 79 0 135-5 179-5 43-14 70-29 91-11 16-24 29-39 40-21 15-48 24-92 29-44 4-100 4-179 4-79 0-135 0-179-4-43-5-71-14-92-29z m63-217l333 0c17 0 31-14 31-31 0-17-14-31-31-31l-333 0c-18 0-32 14-32 31 0 17 14 31 32 31z m0-208l125 0c17 0 31-14 31-31 0-17-14-31-31-31l-125 0c-18 0-32 14-32 31 0 17 14 31 32 31z" horiz-adv-x="1000" />

<glyph glyph-name="align-box-middle-center" unicode="&#xe845;" d="M502 798c76 0 136 0 184-5 49-5 88-16 122-41 20-15 38-32 53-53 24-33 35-73 40-121 5-48 5-108 5-184l0-87c0-77 0-137-5-185-5-48-16-87-40-121-15-21-33-38-53-53-34-25-73-36-122-41-48-5-108-5-184-5l-4 0c-76 0-136 0-184 5-48 5-88 16-121 41-21 15-39 32-53 53-25 34-36 73-41 121-5 48-5 108-5 185l0 87c0 76 0 136 5 184 5 48 16 88 41 121 14 21 32 38 53 53 33 25 73 36 121 41 48 5 108 5 184 5z m-273-96c-15-11-28-24-39-40-15-21-24-48-29-91-5-44-5-100-5-179l0-84c0-78 0-135 5-179 5-43 14-70 29-91 11-15 24-29 39-40 21-15 49-24 92-29 44-4 100-4 179-4 79 0 135 0 179 4 44 5 71 14 92 29 15 11 28 25 39 40 15 21 24 48 29 91 5 44 5 101 5 179l0 84c0 79 0 135-5 179-5 43-14 70-29 91-11 16-24 29-39 40-21 15-48 24-92 29-44 4-100 4-179 4-79 0-135 0-179-4-43-5-71-14-92-29z m104-217l334 0c17 0 31-14 31-31 0-17-14-31-31-31l-334 0c-17 0-31 14-31 31 0 17 14 31 31 31z m105-208l125 0c17 0 31-14 31-31 0-17-14-31-31-31l-125 0c-18 0-32 14-32 31 0 17 14 31 32 31z" horiz-adv-x="1000" />

<glyph glyph-name="align-bottom" unicode="&#xe846;" d="M305 715c3 0 5 0 8 0 2 0 4 0 7 0l0 0c15 0 35 0 52-4 23-4 48-16 63-43 8-13 11-27 12-40 1-13 1-29 1-48l0-294c0-18 0-34-1-47-1-14-4-27-12-40-15-27-40-39-63-44-17-3-37-3-52-3l0 0c-3 0-5 0-7 0-3 0-5 0-8 0l0 0c-15 0-34 0-52 3-23 5-48 17-63 44-8 13-10 26-12 40-1 13-1 29-1 47l0 294c0 19 0 35 1 48 2 13 4 27 12 40 15 27 40 39 63 43 18 4 37 4 52 4z m375-250c3 0 5 0 8 0 2 0 4 0 7 0l0 0c15 0 35 0 52-4 23-4 48-16 63-43 8-13 11-27 12-40 1-13 1-29 1-48l0-44c0-18 0-34-1-47-1-14-4-27-12-40-15-27-40-39-63-44-17-3-37-3-52-3-3 0-5 0-7 0-3 0-5 0-8 0-15 0-34 0-52 3-23 5-48 17-63 44-8 13-10 26-12 40-1 13-1 29-1 47l0 44c0 19 0 35 1 48 2 13 4 27 12 40 15 27 40 39 63 43 18 4 37 4 52 4z m-415 185c-11-2-17-6-21-14-1-1-3-5-3-14-1-10-1-23-1-43l0-292c0-20 0-33 1-42 0-10 2-13 3-15 4-7 10-11 21-13 11-3 23-3 37-3l0 0c4 1 7 1 11 1 3 0 6 0 10-1l0 0c15 0 26 0 37 3 11 2 17 6 21 13 1 2 3 5 4 15 0 9 0 22 0 42l0 292c0 20 0 33 0 43-1 9-3 13-4 14-4 8-10 12-21 14-11 2-22 2-37 2l0 0 0 0c-4 0-7 0-10 0-4 0-7 0-11 0l0 0 0 0c-14 0-26 0-37-2z m652-665l-834 0c-17 0-31 14-31 32 0 17 14 31 31 31l834 0c17 0 31-14 31-31 0-18-14-32-31-32z m-277 415c-11-2-17-6-21-14-1-1-3-5-3-14-1-10-1-23-1-43l0-42c0-20 0-33 1-42 0-10 2-13 3-15 4-7 10-11 21-13 11-3 23-3 37-3l0 0c4 1 7 1 11 1 3 0 6 0 10-1l0 0c15 0 26 0 37 3 11 2 17 6 21 13 1 2 3 5 4 15 0 9 0 22 0 42l0 42c0 20 0 33 0 43-1 9-3 13-4 14-4 8-10 12-21 14-11 2-22 2-37 2l0 0 0 0c-4 0-7 0-10 0-4 0-7 0-11 0l0 0 0 0c-14 0-26 0-37-2z" horiz-adv-x="1000" />

<glyph glyph-name="alien-01" unicode="&#xe847;" d="M500 798c223 0 406-158 406-406 0-126-67-248-148-337-41-45-86-82-130-109-43-26-88-44-128-44-40 0-84 18-128 44-43 27-89 64-129 109-81 89-149 211-149 337 0 248 183 406 406 406z m-344-406c0-105 58-212 133-295 37-41 78-74 116-98 39-24 72-34 95-34 23 0 56 10 95 34 38 24 79 57 116 98 76 83 133 190 133 295 0 211-153 343-344 343-191 0-344-132-344-343z m115 73l35 0c78 0 142-64 142-143l0-34c0-29-23-53-52-53l-35 0c-78 0-142 64-142 143l0 35c0 28 23 52 52 52z m509-46c1-8 1-17 1-26l0-15c0-79-63-143-142-143l-15 0c-9 0-18 0-26 2-9 1-21 4-31 14-9 10-13 21-14 30-1 8-1 17-1 26l0 15c0 79 64 143 143 143l13 0 2 0 0 0c8 0 18 0 25-1 10-2 21-5 31-15 10-9 13-21 14-30z m-353-319c0 17 14 31 31 31l84 0c17 0 31-14 31-31 0-17-14-31-31-31l-84 0c-17 0-31 14-31 31z m-146 278c0-44 36-80 80-80l24 0 0 24c0 44-35 80-79 80l-25 0z m427 24l-13 0c-45 0-80-36-80-80l0-14c0-4 0-7 0-10 3 0 6 0 10 0l14 0c44 0 80 36 80 80l0 14c0 4 0 7 0 10-3 0-6 0-11 0z" horiz-adv-x="1000" />

<glyph glyph-name="algorithm" unicode="&#xe848;" d="M555 319l-24 0 0-84 136 0c63 0 97 0 126-19 13-8 24-19 32-31 16-24 19-52 19-96 6-1 12-3 17-5 18-7 32-21 40-39 5-14 5-27 5-49 0-22 0-36-5-49-8-18-22-32-40-40-13-5-26-5-48-5-23 0-36 0-49 5-18 8-32 22-40 40-5 13-5 27-5 49 0 22 0 35 5 49 8 18 22 32 40 39 5 2 11 4 17 5 0 31-2 51-8 61-4 5-9 10-15 14-13 9-41 9-91 9l-136 0 0-84c7-1 12-2 18-5 18-7 32-21 39-39 6-14 6-27 6-49 0-22 0-36-6-49-7-18-21-32-39-40-14-5-27-5-49-5-22 0-35 0-49 5-18 8-32 22-39 40-6 13-6 27-6 49 0 22 0 35 6 49 7 18 21 32 39 39 6 3 12 4 18 5l0 84-136 0c-50 0-78 0-91-9-6-4-10-9-14-14-7-10-8-30-9-61 6-1 12-3 17-5 18-7 32-21 40-39 5-14 5-27 5-49 0-22 0-36-5-49-8-18-21-32-40-40-13-5-26-5-48-5-23 0-36 0-49 5-18 8-32 22-40 40-5 13-5 27-5 49 0 22 0 35 5 49 8 18 21 32 40 39 6 3 11 4 18 5 0 44 3 72 19 96 8 12 19 23 32 31 28 19 63 19 126 19l135 0 0 84-25 0c-57 0-91 0-117 25-19 19-24 44-25 79l-52 0c-17 0-32 14-32 31 0 17 15 31 32 31l52 0 0 63-52 0c-17 0-32 14-32 31 0 17 15 31 32 31l52 0c1 36 6 60 25 79 19 19 43 24 79 25l0 53c0 17 14 31 31 31 17 0 31-14 31-31l0-52 63 0 0 52c0 17 14 31 31 31 17 0 31-14 31-31l0-53c36-1 60-6 79-25 19-19 24-43 25-79l53 0c17 0 31-14 31-31 0-17-14-31-31-31l-52 0 0-63 52 0c17 0 31-14 31-31 0-17-14-31-31-31l-53 0c-1-35-6-60-25-79-25-25-60-25-117-25z m-50 62l51 0c38 0 66 0 73 7 7 7 7 35 7 73l0 111c0 38 0 66-7 73-7 7-35 7-73 7l-111 0c-38 0-66 0-73-7-7-7-7-35-7-73l0-111c0-38 0-66 7-73 7-7 35-7 73-7l50 0c2 0 3 0 5 0 2 0 3 0 5 0z m-342-355c-3-1-5-3-6-5-1-3-1-14-1-25l0 0c0-11 0-22 1-25 1-3 3-4 6-6 5-1 44-1 50 0 2 1 4 3 5 6 1 2 1 14 1 25l0 0c0 11 0 22-1 25-1 2-3 4-5 5-3 1-11 1-20 2-2-1-3-1-5-1-2 0-3 0-5 1-9-1-18-1-20-2z m650 1c-11 0-22 0-25-1-3-1-5-3-5-6-1-2-1-13-1-24l0 0c0-11 0-22 1-25 0-3 2-4 5-6l0 0c5-1 44-1 50 0 2 1 4 3 5 6 1 2 1 14 1 24l0 0c0 11 0 23-1 25-1 3-3 5-5 6-3 1-14 1-25 1z m-313 0c-11 0-22 0-25-1-2-1-4-3-5-6-1-2-1-13-1-24l0 0c0-11 0-22 1-25 1-3 3-4 5-6l0 0c6-1 44-1 50 0 3 1 5 3 5 6 1 2 1 14 1 24l0 0c0 11 0 23-1 25 0 3-2 5-5 6-3 1-14 1-25 1z" horiz-adv-x="1000" />

<glyph glyph-name="alert-circle" unicode="&#xe849;" d="M52 350c0 247 201 448 448 448 247 0 448-201 448-448 0-247-201-448-448-448-247 0-448 201-448 448z m448 385c-213 0-385-172-385-385 0-213 172-385 385-385 213 0 385 172 385 385 0 213-172 385-385 385z m-31-385l0 167c0 17 14 31 31 31 17 0 31-14 31-31l0-167c0-17-14-31-31-31-17 0-31 14-31 31z m-11-125c0 23 19 42 42 42l0 0c23 0 42-19 42-42 0-23-19-42-42-42l0 0c-23 0-42 19-42 42z" horiz-adv-x="1000" />

<glyph glyph-name="alert-02" unicode="&#xe84a;" d="M432 766c44 15 92 15 136 0 44-15 79-49 114-98 35-49 73-117 123-204l1-4c50-87 88-155 112-210 24-56 36-103 27-149-10-46-34-88-68-120-35-32-81-45-141-52-58-6-135-6-234-6l-4 0c-99 0-176 0-234 6-59 7-106 20-141 52-34 32-58 74-68 120-9 46 3 93 27 149 24 55 62 123 112 210l2 4c49 87 87 155 122 204 35 49 70 83 114 98z m117-59c-32 10-66 10-97 0-25-8-50-30-83-75-33-46-69-111-120-201-51-89-87-154-110-206-22-52-28-85-22-111 7-34 24-64 49-87 19-18 49-30 104-36 55-6 129-6 230-6 101 0 175 0 230 6 55 6 85 18 105 36 24 23 42 53 48 87 6 26 0 59-22 111-23 52-59 117-110 206-51 90-87 155-120 201-33 45-58 67-82 75z m-80-399l0 167c0 17 14 31 31 31 17 0 31-14 31-31l0-167c0-17-14-31-31-31-17 0-31 14-31 31z m-11-125c0 23 19 42 42 42l0 0c23 0 42-19 42-42 0-23-19-41-42-41l0 0c-23 0-42 18-42 41z" horiz-adv-x="1000" />

<glyph glyph-name="album-02" unicode="&#xe84b;" d="M422 798c74 0 132 0 178-6 46-7 84-21 114-52 29-29 42-66 49-111 45-7 82-21 111-52 30-31 44-71 50-120 6-48 6-109 6-186l0-4c0-78 0-139-6-186-6-49-20-89-50-121-30-31-68-45-115-52-46-6-105-6-179-6l-4 0c-74 0-133 0-179 6-47 7-85 21-115 52-29 31-43 69-49 116-44 7-79 21-107 51-30 31-44 71-50 119-6 48-6 108-6 185l0 5c0 76 0 137 6 184 6 49 20 89 50 120 30 31 68 45 114 52 46 6 104 6 178 6z m-254-102c-17-18-27-42-32-84-6-43-6-99-6-179l0-12c15 1 30 2 45 2 111 2 221-30 308-90 70-48 123-112 153-185 15 5 26 13 36 23 17 18 27 42 32 84 6 42 6 99 6 178 0 80 0 136-6 179-5 42-15 66-32 84-17 17-40 28-80 34-41 5-96 5-172 5-76 0-130 0-172-5-40-6-63-17-80-34z m600-132c2-37 2-79 2-128l0-5c0-77 0-137-6-185-6-48-20-88-50-119-30-31-68-45-114-52-46-6-104-6-178-6l-4 0c-47 0-88 0-124 1 6-31 16-50 30-65 17-18 41-29 81-35 42-5 96-5 173-5 77 0 131 0 173 5 40 6 64 17 81 35 17 17 27 42 32 84 6 43 6 100 6 180 0 80 0 137-6 180-5 42-15 66-32 84-15 15-34 25-64 31z m-318-283c-77 53-174 81-275 79l0 0c-15 0-30 0-45-1 1-43 2-76 6-104 5-42 15-66 32-84 17-18 40-28 80-34 42-6 96-6 172-6 67 0 116 0 155 4-25 56-68 106-125 146z m90 319l0 0c22 0 40-19 40-42 0-23-18-41-40-41l0 0c-22 0-40 18-40 41 0 23 18 42 40 42z" horiz-adv-x="1000" />

<glyph glyph-name="alarm-clock" unicode="&#xe84c;" d="M531 735l0-22c210-15 375-191 375-405 0-90-29-173-79-241l70-70c12-12 12-32 0-44-12-12-32-12-44 0l-67 67c-73-73-174-118-286-118-111 0-213 45-286 118l-67-67c-12-12-32-12-44 0-12 12-12 32 0 44l70 70c-50 68-79 151-79 241 0 214 165 390 375 405l0 22-52 0c-18 0-32 14-32 32 0 17 14 31 32 31l166 0c18 0 32-14 32-31 0-18-14-32-32-32z m-375-427c0-189 154-343 344-343 190 0 344 154 344 343 0 190-154 344-344 344-190 0-344-154-344-344z m375 146l0-153 74-75c13-12 13-32 0-44-12-12-31-12-44 0l-83 83c-6 6-9 14-9 23l0 166c0 17 14 31 31 31 17 0 31-14 31-31z m-393 301c22 4 42-4 60-13l24-13c16-7 22-26 14-42-7-15-26-21-42-14l-24 13c-18 8-22 8-22 8-1 0-5-1-19-15-14-13-14-18-14-18 0-1-1-5 8-22l12-25c8-15 2-34-14-42-15-8-34-1-42 14l-12 25c-9 18-18 38-14 60 3 22 18 38 32 52 14 15 31 29 53 32z m715-61c-1 0-5 0-22-8l-25-13c-16-7-35-1-42 14-8 16-2 35 14 42l25 13c17 9 38 17 59 13 22-3 39-17 53-32 14-14 29-30 32-52 4-22-5-42-14-60l-12-25c-8-15-27-22-42-14-15 8-22 27-14 42l12 25c9 17 9 21 8 22 0 0 0 5-14 18-14 14-18 15-18 15z" horiz-adv-x="1000" />

<glyph glyph-name="al-aqsa-mosque" unicode="&#xe84d;" d="M531 767l0-13c124-18 205-144 184-269 14-3 25-16 25-31 0-17-14-31-32-31l-10 0 0-42 52 0c1 0 1 0 2 0 3 0 7-1 10-2l112-42c22-8 44-19 58-39 14-20 16-44 16-68l0-297c0-17-14-31-31-31l-167 0-74 63 43 0 0 354-438 0 0-22 138-116 0 0-138 116 0-332 104 0 0 135c0 32 13 60 34 81l48-40c-11-10-19-25-19-41l0-135 104 0 0 104 63-53 0-51 61 0 74-63-667 0c-17 0-31 14-31 31l0 297c0 24 2 48 16 68 14 20 36 31 58 39l112 42c4 1 8 2 12 2l52 0 0 42-10 0c-18 0-32 14-32 31 0 15 11 27 25 31-21 125 60 251 184 269l0 13c0 17 14 31 31 31 17 0 31-14 31-31z m121-282c24 107-52 209-152 209-100 0-176-102-152-209z m129-520l104 0 0 265c0 23-2 30-4 33-2 2-7 7-29 16l-71 26z m-562 0l0 340-71-26c-22-9-27-14-29-16-2-3-4-10-4-33l0-265z m396 51l-63 53 0 0-85 72 0 0-48 40c21 21 49 34 81 34 63 0 115-52 115-115z m-250 407l0-42 270 0 0 42z m187-354l0 31c0 29-23 52-52 52-12 0-24-4-33-11z m124-104l0 0-61 51 0 0 61-51z" horiz-adv-x="1000" />

<glyph glyph-name="airport" unicode="&#xe84e;" d="M365 767l0-52c24-1 45-2 63-6 20-5 42-14 55-34 0-1 1-3 2-4 9-22 4-44-4-63-2-6-5-12-9-19 14 0 26 0 37-2 19-3 40-10 53-29 14-20 12-42 8-61-4-17-13-38-23-62l-7-20c-7-17-14-33-20-45-7-14-16-26-30-35-13-9-27-13-42-15l0-64 304 0c28 0 52 0 71-2 20-3 40-9 56-25 16-16 22-36 25-56 2-19 2-43 2-71l0-46c0-27 0-51-2-70-3-21-9-41-25-57-16-15-36-22-56-24-19-3-43-3-71-3l-379 0c-28 0-52 0-71 3-20 2-40 9-56 24-16 16-22 36-25 57-2 19-2 43-2 70l0 264c-15 2-29 6-42 15-14 9-23 21-30 35-7 12-13 28-20 45l-1 2-6 15-1 3c-9 24-18 45-22 62-5 19-6 41 8 61 13 19 34 26 53 29 10 2 23 2 37 2-4 7-7 13-9 19-8 19-13 41-4 63 1 1 2 3 2 4 13 20 35 29 55 34 18 4 39 5 63 6l0 52c0 17 14 31 31 31 18 0 32-14 32-31z m83-573l0-229 302 0c30 0 50 0 65 2 13 1 17 4 20 7 2 2 5 6 7 20 2 14 2 34 2 64l0 42c0 30 0 50-2 64-2 14-5 18-7 21-3 2-7 5-20 7-15 2-35 2-65 2z m-50 187c19 0 32 0 42 1 9 1 13 3 15 5 2 1 5 4 10 12 4 9 9 21 17 41l7 16c10 27 17 43 20 56 1 6 2 9 1 10l0 0 0 1c-1 0-4 1-10 2-13 2-31 2-60 2l-213 0c-29 0-47 0-60-2-6-1-9-2-10-2l-1-1 0 0c0-1 0-4 2-10 3-13 9-29 20-56l6-16c8-20 13-32 18-41 5-8 7-11 10-12 2-2 5-4 15-5 10-1 22-1 42-1z m-117-62l0-261c0-30 0-50 2-64 2-14 5-18 8-20 2-3 6-6 20-7 14-2 34-2 64-2l11 0 0 260 0 0 0 94z m616 303c12-12 12-32 0-44l-32-33 0-132c0-18-14-32-32-32-17 0-31 14-31 32l0 70-71-72c-6-6-14-9-23-9l-41 0c-17 0-31 14-31 31 0 18 14 32 31 32l29 0 62 62-70 0c-18 0-32 14-32 31 0 18 14 32 32 32l133 0 32 32c12 12 32 12 44 0z m-579 30c-31 0-51-1-66-4-6-2-10-3-12-4 0-3 1-6 3-11 5-11 13-24 24-43l132 0c12 19 20 32 25 43 2 5 3 8 3 11-2 1-6 2-13 4-14 3-34 4-65 4l-31 0z" horiz-adv-x="1000" />

<glyph glyph-name="airpod-03" unicode="&#xe84f;" d="M275 12c-1 8-1 18-1 28l0 316c-28-5-57-6-86 0-38 9-72 26-97 53-25 28-39 64-39 105l0 81c0 50 20 92 54 120 33 29 78 42 126 41 54 0 112-21 158-58 45-37 79-92 79-161l0-497c0-10 0-20-1-28-1-9-2-18-7-28-11-22-29-32-47-37-14-3-29-3-39-3l-3 0-4 0c-10 0-25 0-39 3-18 5-36 15-47 37-5 10-6 19-7 28z m673 583l0-81c0-41-14-77-39-105-25-27-59-44-97-53-29-6-58-5-86 0l0-316c0-10 0-20-1-28-1-9-2-18-7-28-11-22-29-32-47-37-14-3-29-3-39-3l-3 0-4 0c-10 0-25 0-39 3-18 5-36 15-47 37-5 10-6 19-7 28-1 8-1 18-1 28l0 497c0 69 34 124 80 161 45 37 103 58 157 58 47 1 91-13 125-40 34-29 55-70 55-121z m-833 0l0-81c0-27 8-48 22-63 14-16 36-27 64-33 24-5 48-4 72 2-2 13-5 24-8 32-6 11-10 13-15 13-17 0-31 14-31 31 0 17 14 31 31 31 37 0 59-23 71-49 11-23 15-51 16-76 0-2 0-4 0-6 0-3 0-6 0-9l0-346c0-12 0-19 0-24 1-3 1-5 1-5 1-2 2-2 2-3 0 0 1-1 4-1 6-2 13-2 25-2l1 0 2 0 2 0 0 0c12 0 19 0 25 2 3 0 4 1 4 1 1 1 1 1 2 3 0 0 1 2 1 5 0 5 0 12 0 24l0 496c0 46-22 85-56 112-34 29-79 44-119 45-36 0-66-10-85-26-19-16-31-40-31-73z m684-177c28 6 50 17 64 33 14 15 22 36 22 63l0 81c0 32-12 56-32 72-20 17-50 27-84 27-40-1-84-16-119-45-34-27-56-66-56-112l0-496c0-12 0-19 0-24 1-3 1-5 1-5 1-2 2-2 2-3 0 0 1-1 4-1 6-2 13-2 25-2l1 0 2 0 2 0 0 0c12 0 19 0 25 2 3 0 4 1 4 1 1 1 1 1 2 3 0 0 1 2 1 5 0 5 0 12 0 24l0 346c0 3 0 6 0 9 0 2 0 4 1 6 0 25 4 53 15 76 12 26 34 49 71 49 17 0 31-14 31-31 0-17-14-31-31-31-5 0-9-2-14-13-4-8-7-19-8-32 23-6 48-7 71-2z" horiz-adv-x="1000" />

<glyph glyph-name="album-01" unicode="&#xe850;" d="M418 798l4 0c74 0 132 0 178-6 46-7 84-21 114-52 29-29 42-66 49-111 45-7 82-21 111-52 30-31 44-71 50-120 6-48 6-109 6-186l0-4c0-78 0-139-6-186-6-49-20-89-50-121-30-31-68-45-115-52-46-6-105-6-179-6l-4 0c-74 0-133 0-179 6-47 7-85 21-115 52-29 31-43 69-49 116-44 7-79 21-107 51-30 31-44 71-50 119-6 48-6 108-6 185l0 5c0 76 0 137 6 184 6 49 20 89 50 120 30 31 68 45 114 52 46 6 104 6 178 6z m-170-68c-40-6-63-17-80-34-17-18-27-42-32-84-6-43-6-99-6-179 0-79 0-136 6-178 5-42 15-66 32-84 11-12 26-20 46-27 2 5 5 9 8 13 60 88 128 188 205 248 46 35 97 60 154 60 42 0 85-13 129-41l0 9c0 80 0 136-6 179-5 42-15 66-32 84-17 17-40 28-80 34-41 5-96 5-172 5-76 0-130 0-172-5z m522-294l0-5c0-77 0-137-6-185-6-48-20-88-50-119-30-31-68-45-114-52-46-6-104-6-178-6l-4 0c-47 0-88 0-124 1 6-31 16-50 30-65 17-18 41-29 81-35 42-5 96-5 173-5 77 0 131 0 173 5 40 6 64 17 81 35 17 17 27 42 32 84 6 43 6 100 6 180 0 80 0 137-6 180-5 42-15 66-32 84-15 15-34 25-64 31 2-37 2-79 2-128z m-60-87c-49 39-92 53-129 53-40 0-79-17-118-47-66-52-125-136-183-221 37-3 82-3 140-3 76 0 131 0 172 6 40 6 63 16 80 34 17 18 27 42 32 84 4 25 5 56 6 94z" horiz-adv-x="1000" />

</font>
</defs>
</svg>
